<svg viewBox="0 0 276 173" xmlns="http://www.w3.org/2000/svg"><g stroke="#321337" stroke-width="4" fill="none" fill-rule="evenodd"><path d="M31.98 1.999L33.99 2"/><path stroke-dasharray="4.093,4.093" d="M38.106 2.004l22.63.016"/><path d="M62.794 2.02l2.01.002.355 1.969"/><path stroke-dasharray="4.014,4.014" d="M65.873 7.942l19.605 108.661"/><path d="M85.833 118.579l.356 1.969H88.2"/><path stroke-dasharray="3.966,3.966" d="M92.187 120.551l109.64.076"/><path d="M203.821 120.629h2.011l.259-1.982"/><path stroke-dasharray="3.928,3.928" d="M206.598 114.751l9.906-75.967"/><path d="M216.756 36.836l.26-1.983-2.011-.002"/><path stroke-dasharray="4.039,4.039" d="M210.944 34.849l-136.022-.095"/><path d="M72.892 34.753l-2.01-.001"/><g><path d="M189.732 139.318a14.085 14.085 0 00-9.967 4.097 13.916 13.916 0 00-4.13 9.893 13.914 13.914 0 004.116 9.899 14.085 14.085 0 009.962 4.11 14.086 14.086 0 009.967-4.097 13.913 13.913 0 004.129-9.893 13.911 13.911 0 00-4.115-9.898 14.086 14.086 0 00-9.962-4.111z"/></g><g><path d="M102.262 139.257a14.085 14.085 0 00-9.967 4.098 13.916 13.916 0 00-4.13 9.893 13.913 13.913 0 004.116 9.898 14.085 14.085 0 009.961 4.111 14.086 14.086 0 009.968-4.097 13.913 13.913 0 004.129-9.893 13.911 13.911 0 00-4.115-9.898 14.086 14.086 0 00-9.962-4.112z"/></g><path d="M0 170.602h275.311"/></g></svg>