<svg viewBox="0 0 635 279" xmlns="http://www.w3.org/2000/svg"><title>Team illustration</title><g fill="none" fill-rule="evenodd"><g fill="#F9423A"><path d="M369 175h19v19h-19zM98 115h33v33H98z"/><path d="M124.647 93.04l16.313 7.607-7.607 16.313-16.313-7.607zM391 159h35v35h-35zM429 159h50v50h-50zM421 116h40v40h-40zM406.763 124.395l13.842 18.368-18.368 13.842-13.842-18.368zM355.57 196H426v78h-78v-63.86l7.57-6.122zM429 212h62v62h-62z"/></g><g stroke="#321337"><path d="M512.363 62.585c25.168 25.756 40.16 54.364 44.975 85.823-8.801 16.452-55.592 28.838-70.29 16.73-6.14-33.687-7.479-67.675 3.904-97.624l14.384 15.055 7.027-19.984zM543.877 209.917l9.65-56.444M490.952 67.514c-20.792 28.715-77.78 48.552-33.135 47.293 5.08-.143 4.986 3.056 5.347 13.879M510.96 61.096c28.73 16.68 53.127 52.584 56.245 93.216M524.892 276.354c16.763.004 25.14.004 25.132 0 12.144-2.802 16.457-8.614 12.94-17.438l-28.469-72.514" stroke-width="4.5"/><path stroke-width="4.5" d="M510.96 199.185l5.207 77.169 13.51-.018 4.816-37.145M492.27 168.142l53.96 90.774"/><path d="M476.915 35.422c1.101 17.732 11.278 31.531 22.73 30.82 11.453-.712 19.844-15.664 18.743-33.396-1.102-17.733-11.279-31.53-22.73-30.82-11.453.711-19.845 15.663-18.743 33.396z" stroke-width="3.931"/><path d="M514.115 18.908c-8.543.006-18.006-4.726-18.006-4.726-8.333 13.267-15.036 19.97-20.109 20.11" stroke-width="3.931"/><g><path d="M173.866 67.312c13.061 15.65 32.294 98.399 32.602 147.85-15.257 13.464-61.712 14.658-83.687-2.958 1.103-33.378 17.18-117.581 30.617-141.71M174.5 68.272c19.264 17.801 35.007 51.614 37.546 103.228M154.592 68c-19.264 17.8-93.45 48.933-37.955 80.34M156.5 223.727l-.407 51.868M178.03 223.727v51.057" stroke-width="4.5"/><g stroke-width="3.93"><path d="M142.45 41.905c.783 17.088 10.26 30.59 21.167 30.158 10.908-.434 19.115-14.637 18.332-31.725-.781-17.088-10.258-30.59-21.166-30.157-10.908.433-19.116 14.636-18.333 31.724zM141.663 39.711c-33.467 2.148-53.628 9.406-48.542 22.092 5.431 13.549 35.307-7.688 48.542-22.092zM140.781 36.687c-22.537-13.201-38.644-17.334-40.741-6.995-2.24 11.043 26.076 10.454 40.741 6.995zM142.017 37.854c12.291 1.501 30.877-5.88 34.479-16"/></g></g><g><path d="M313.546 81C294.282 98.8 281.734 135.53 276 184.5" stroke-width="4.5"/><g stroke-width="4"><path d="M341.292 91.21c17.007 32.366 36.906 47.205 61.693 48.79M285.811 206.29c17.338 10.087 58.276 10.087 68.874 0 3.952-69.09-3.02-110.226-20.915-123.408M345.437 54.134c-1.042 17.485-10.676 31.091-21.517 30.39-10.84-.701-18.785-15.445-17.741-32.93 1.042-17.485 10.676-31.091 21.516-30.39 10.842.701 18.786 15.445 17.742 32.93zM311.121 212.961L310.282 278M333.77 212.961l.021 65.039"/><path d="M306.926 47.24c16.566-3.987 20.345-16.25 20.345-26.062 0 13.49 5.04 20.849 17.42 27.517M316.996 10.755c0-4.835 3.945-8.755 8.812-8.755 4.867 0 8.812 3.92 8.812 8.755 0 4.836-3.945 8.756-8.812 8.756-4.867 0-8.812-3.92-8.812-8.756z"/><path d="M314.488 80.906C309.934 86.39 284.5 99.699 287.004 205.9" stroke-linecap="square"/><path d="M345.437 54.134c-1.042 17.485-10.676 31.091-21.517 30.39-10.84-.701-18.785-15.445-17.741-32.93 1.042-17.485 10.676-31.091 21.516-30.39 10.842.701 18.786 15.445 17.742 32.93zM311.121 212.961L310.282 278M333.77 212.961l.021 65.039"/><path d="M306.926 47.24c16.566-3.987 20.345-16.25 20.345-26.062 0 13.49 5.04 20.849 17.42 27.517M316.996 10.755c0-4.835 3.945-8.755 8.812-8.755 4.867 0 8.812 3.92 8.812 8.755 0 4.836-3.945 8.756-8.812 8.756-4.867 0-8.812-3.92-8.812-8.756z"/></g></g><path stroke-width="4.5" d="M0 276.354l634.5.146"/></g></g></svg>