<svg viewBox="0 0 360 100" xmlns="http://www.w3.org/2000/svg">
  <path fill="currentColor" d="M129 59.7c0 10-8.2 14-16.7 14H92.5V23.2h18c8.9 0 16 4.2 16 12.7 0 5.9-3.3 9-7.3 10.5v.7c5 1.4 9.8 5 9.8 12.6zm-27-16.3h8c4.5 0 7-2.3 7-6s-2.9-6-6.8-6H102zm17.2 15.2c0-4.1-3-7.2-8.5-7.2h-8.8v14h8.5c5.7 0 8.8-2.7 8.8-6.8zM144.7 22.4v51.3h-9.5V22.4h9.5zM151 55.7c0-11.2 8.5-18.8 19-18.8 10.6 0 19 7.6 19 18.8 0 11-8.3 18.7-19 18.7s-19-7.6-19-18.7zm28.6 0c0-5.9-3.8-10.5-9.6-10.5-5.7 0-9.7 4.6-9.7 10.5s4 10.4 9.8 10.4c5.7 0 9.5-4.5 9.5-10.4zM209 62h-.8L201 73.6h-10.6l11.5-18.6L191 37.6h10.6l6.5 10.7h.8l6.5-10.7h10.7l-10.8 17.5 11.5 18.6H216zM247.6 62h-.8l-7.3 11.7H229l11.5-18.6-10.8-17.5H240l6.6 10.7h.8l6.5-10.7h10.6l-10.8 17.5 11.5 18.6h-10.7zM285.2 74.4c-6.3 0-11-2.6-11-11.5V45h-7v-6.8h2.2c3.7 0 5.7-2 5.7-5.1v-4.7h8.5v9.1h9v7.5h-9v17c0 2.8 1.3 4.1 3.3 4.1a7.3 7.3 0 0 0 3.4-1l2 7.3a13.3 13.3 0 0 1-7.1 2zM330.5 62.3c-1.7 7.9-8.8 12.1-17 12.1-11.2 0-18.4-7.6-18.4-18.8 0-11.1 8-18.7 17.8-18.7 9.6 0 18.6 5.9 17.4 21.3h-26.2c.7 5.2 3.7 8.6 9.6 8.6 3.5 0 6.7-1.6 8-4.5zm-26-11h17.2c-.2-3.5-3.4-7-8.4-7-4.4 0-7.7 2.5-8.8 7zM360 36.9v9.4a21.6 21.6 0 0 0-3.8-.5c-5.2 0-10 3.4-10 12v16h-9.7V37.5h7.6l1.3 5h.8c2.2-3 5.2-5.7 11.2-5.7z" />
  <path fill="#ff3547" d="M48.7 36.8V0H0v100h64.7V36.8zM10.4 10.4h27.9v26.4H10.4zm43.9 79.2H10.4V47.2h43.9z" />
</svg>
