<?xml version="1.0" encoding="utf-8"?>
<svg version="1.1" id="illu" xmlns="http://www.w3.org/2000/svg" xmlns:xlink="http://www.w3.org/1999/xlink" x="0px" y="0px"
	 viewBox="0 0 1096 576" style="enable-background:new 0 0 1096 576;" xml:space="preserve">
<polyline vector-effect="non-scaling-stroke" points="679,576 679,503.9 985.9,503.9 985.9,576 "/>
<rect x="679" y="376.5" vector-effect="non-scaling-stroke" width="306.9" height="116.1"/>
<path vector-effect="non-scaling-stroke" d="M710.8,576v-49.4c0-1.8,0-4.7,1.8-7.2c1.7-2.4,5.4-4.9,13.8-4.9c8.4,0,12.1,2.5,13.8,4.9
	c1.7,2.4,1.8,5.4,1.8,7.1V576"/>
<path vector-effect="non-scaling-stroke" d="M763.8,576v-49.4c0-1.8,0-4.7,1.8-7.2c1.7-2.4,5.4-4.9,13.8-4.9c8.4,0,12.1,2.5,13.8,4.9
	c1.8,2.4,1.8,5.4,1.8,7.1V576"/>
<path vector-effect="non-scaling-stroke" d="M816.8,576v-49.4c0-1.8,0-4.7,1.8-7.2c1.7-2.4,5.4-4.9,13.8-4.9s12.1,2.5,13.8,4.9c1.8,2.4,1.8,5.4,1.8,7.1V576
	"/>
<path vector-effect="non-scaling-stroke" d="M869.8,576v-49.4c0-1.8,0-4.7,1.8-7.2c1.7-2.4,5.4-4.9,13.8-4.9s12.1,2.5,13.8,4.9c1.8,2.4,1.8,5.4,1.8,7.1V576
	"/>
<path vector-effect="non-scaling-stroke" d="M922.8,576v-49.4c0-1.8,0-4.7,1.8-7.2c1.7-2.4,5.4-4.9,13.8-4.9c8.4,0,12.1,2.5,13.8,4.9
	c1.8,2.4,1.8,5.4,1.8,7.1V576"/>
<path vector-effect="non-scaling-stroke" d="M671.2,503.6l-5.2-11.5h332.9l-5.2,11.5H671.2z"/>
<path vector-effect="non-scaling-stroke" d="M671.3,375.9l-5.7-17.1h333.5l-5.7,17.1H671.3z"/>
<path vector-effect="non-scaling-stroke" d="M727.8,327l-12.5,31.2h234.2L937,327h-62.2h-44.2h-44.2H727.8z"/>
<rect x="714.3" y="443.7" vector-effect="non-scaling-stroke" width="24.1" height="31.2"/>
<rect x="714.3" y="394.2" vector-effect="non-scaling-stroke" width="24.1" height="31.2"/>
<rect x="926.4" y="443.7" vector-effect="non-scaling-stroke" width="24.1" height="31.2"/>
<rect x="926.4" y="394.2" vector-effect="non-scaling-stroke" width="24.1" height="31.2"/>
<rect x="873.3" y="443.7" vector-effect="non-scaling-stroke" width="24.1" height="31.2"/>
<rect x="873.3" y="394.2" vector-effect="non-scaling-stroke" width="24.1" height="31.2"/>
<rect x="820.3" y="443.7" vector-effect="non-scaling-stroke" width="24.1" height="31.2"/>
<rect x="820.3" y="394.2" vector-effect="non-scaling-stroke" width="24.1" height="31.2"/>
<rect x="767.3" y="443.7" vector-effect="non-scaling-stroke" width="24.1" height="31.2"/>
<rect x="767.3" y="394.2" vector-effect="non-scaling-stroke" width="24.1" height="31.2"/>
<path vector-effect="non-scaling-stroke" d="M883,344.1c0.2,0.2,0.4,0.4,0.7,0.7c4.7,4.7,9.8,9.9,17.6,13.5H763.5c7.8-3.6,13-8.8,17.6-13.5
	c0.2-0.2,0.5-0.5,0.7-0.7c0.6-0.6,1.1-1.1,1.7-1.7c9.8-9.8,17-17,24.2-21.9c7.4-5.1,14.7-7.6,24.7-7.6s17.3,2.5,24.7,7.6
	c7.2,4.9,14.4,12.1,24.2,21.9C881.8,343,882.4,343.5,883,344.1z"/>
<path vector-effect="non-scaling-stroke" d="M844.5,339.1c0,2.1-1.2,4.2-3.3,5.8c-2.2,1.6-5.2,2.7-8.8,2.7s-6.6-1.1-8.8-2.7s-3.3-3.7-3.3-5.8
	s1.2-4.2,3.3-5.8c2.2-1.6,5.2-2.7,8.8-2.7s6.6,1.1,8.8,2.7C843.3,334.9,844.5,337,844.5,339.1z"/>
<path vector-effect="non-scaling-stroke" d="M196.7,576L196.7,576V350.2l66.9-45.5l66.9,45.5V576"/>
<polyline vector-effect="non-scaling-stroke" points="211.2,576 211.2,527.8 228.8,527.8 228.8,576 "/>
<polyline vector-effect="non-scaling-stroke" points="298.3,576 298.3,527.8 315.9,527.8 315.9,576 "/>
<rect x="331" y="364.5" vector-effect="non-scaling-stroke" width="90.2" height="10.4"/>
<rect x="105.9" y="364.5" vector-effect="non-scaling-stroke" width="90.2" height="10.4"/>
<polyline vector-effect="non-scaling-stroke" points="331,576 331,375.4 414,375.4 414,576 "/>
<polyline vector-effect="non-scaling-stroke" points="113.2,576 113.2,375.4 196.2,375.4 196.2,576 "/>
<rect x="298.3" y="437.1" vector-effect="non-scaling-stroke" width="17.6" height="28.5"/>
<rect x="211.2" y="437.1" vector-effect="non-scaling-stroke" width="17.6" height="28.5"/>
<path vector-effect="non-scaling-stroke" d="M228.8,395.1L228.8,395.1v23.3h-17.6v-23.3l0,0c0,0,0,0,0-0.1s0-0.3,0.1-0.5c0.1-0.5,0.4-1.1,0.8-1.8
	c0.9-1.2,2.9-2.8,7.9-2.8s7,1.6,7.9,2.8c0.5,0.6,0.7,1.3,0.8,1.8c0.1,0.2,0.1,0.4,0.1,0.5S228.8,395.1,228.8,395.1z"/>
<path vector-effect="non-scaling-stroke" d="M251.1,396.9c0-0.8,0-2.4,1.3-3.8s4.2-3.2,11.1-3.2s9.9,1.7,11.1,3.2c1.3,1.4,1.3,3,1.3,3.8l0,0l0,0l0,0l0,0
	l0,0l0,0l0,0l0,0l0,0l0,0l0,0l0,0l0,0l0,0l0,0l0,0l0,0l0,0l0,0l0,0l0,0l0,0l0,0l0,0l0,0l0,0l0,0l0,0l0,0l0,0l0,0l0,0l0,0l0,0l0,0
	l0,0l0,0l0,0l0,0l0,0l0,0l0,0l0,0l0,0l0,0l0,0l0,0l0,0l0,0l0,0l0,0l0,0l0,0l0,0l0,0l0,0l0,0l0,0l0,0l0,0l0,0l0,0l0,0l0,0l0,0l0,0
	l0,0l0,0l0,0l0,0l0,0l0,0l0,0l0,0l0,0l0,0l0,0l0,0l0,0l0,0l0,0l0,0l0,0l0,0l0,0l0,0l0,0l0,0l0,0l0,0l0,0l0,0l0,0l0,0l0,0l0,0l0,0
	l0,0l0,0l0,0l0,0l0,0l0,0l0,0l0,0l0,0l0,0l0,0l0,0l0,0l0,0l0,0l0,0l0,0l0,0l0,0l0,0l0,0l0,0l0,0l0,0l0,0l0,0l0,0l0,0l0,0l0,0l0,0
	l0,0l0,0l0,0l0,0l0,0l0,0v0.1l0,0v0.1v0.1v0.1v0.1v0.1v0.1v0.1v0.1v0.1v0.1v0.1v0.1v0.1v0.1v0.1v0.1v0.1v0.1v0.1v0.1v0.1v0.1v0.1
	v0.1v0.1v0.1v0.1v0.1v0.1v0.1v0.1v0.1v0.1v0.1v0.1v0.1v0.1v0.1v0.1v0.1v0.1v0.1v0.1v0.1v0.1v0.1v0.1v0.1v0.1v0.1v0.1v0.1v0.1v0.1
	v0.1v0.1v0.1v0.1v0.1v0.1v0.1v0.1v0.1v0.1v0.1v0.1v0.1v0.1v0.1v0.1v0.1v0.1v0.1v0.1v0.1v0.1v0.1v0.1v0.1v0.1v0.1v0.1v0.1v0.1v0.1
	v0.1v0.1v0.1v0.1v0.1v0.1v0.1v0.1v0.1v0.1v0.1v0.1v0.1v0.1v0.1v0.1v0.1v0.1v0.1v0.1v0.1v0.1v0.1v0.1v0.1v0.1v0.1v0.1v0.1v0.1v0.1
	v0.1v0.1v0.1v0.1v0.1v0.1v0.1v0.1v0.1v0.1v0.1v0.1l0,0v0.1v0.1v0.1v0.1v0.1v0.1v0.1v0.1v0.1v0.1v0.1v0.1v0.1v0.1v0.1v0.1v0.1v0.1
	v0.1v0.1v0.1v0.1v0.1v0.1v0.1v0.1v0.1v0.1v0.1v0.1v0.1v0.1v0.1v0.1v0.1v0.1v0.1v0.1v0.1v0.1v0.1v0.1v0.1v0.1v0.1v0.1v0.1v0.1v0.1
	v0.1v0.1v0.1v0.1v0.1v0.1v0.1v0.1v0.1v0.1v0.1v0.1v0.1v0.1v0.1v0.1v0.1v0.1v0.1v0.1v0.1v0.1v0.1v0.1v0.1v0.1v0.1v0.1v0.1v0.1v0.1
	v0.1v0.1v0.1v0.1v0.1v0.1v0.1l0,0v0.1l0,0v0.1l0,0l0,0l0,0l0,0l0,0l0,0l0,0l0,0l0,0l0,0l0,0l0,0l0,0l0,0l0,0l0,0l0,0l0,0l0,0l0,0
	l0,0l0,0l0,0l0,0l0,0l0,0l0,0l0,0l0,0l0,0l0,0l0,0l0,0l0,0l0,0l0,0l0,0l0,0l0,0l0,0l0,0l0,0l0,0l0,0l0,0l0,0l0,0l0,0l0,0l0,0l0,0
	l0,0l0,0l0,0l0,0l0,0l0,0l0,0l0,0H251l0,0l0,0l0,0l0,0l0,0l0,0l0,0l0,0l0,0l0,0l0,0l0,0l0,0l0,0l0,0l0,0l0,0l0,0l0,0l0,0l0,0l0,0
	l0,0l0,0l0,0l0,0l0,0l0,0l0,0l0,0l0,0l0,0l0,0l0,0l0,0l0,0l0,0l0,0l0,0l0,0l0,0l0,0l0,0l0,0l0,0l0,0l0,0l0,0l0,0l0,0l0,0l0,0l0,0
	l0,0l0,0l0,0l0,0l0,0l0,0v-0.1l0,0v-0.1l0,0v-0.1v-0.1v-0.1v-0.1V418v-3v-0.1v-0.1v-0.1v-0.1v-0.1v-0.1v-0.1v-0.1v-0.1V414v-0.1
	v-0.1v-0.1v-0.1v-0.1v0.5l0,0v-0.1v-0.1v-0.1v-0.1v-0.1v-0.1v-0.1v-0.1v-0.1V413v-0.1v-0.1v-0.1v-0.1v-0.1v0.5l0,0v-0.1v-0.1v-0.1
	v-0.1v-0.1v-0.1v-0.1v-0.1v-0.1V412v-0.1v-0.1v-0.1v-0.1v-0.1v0.5v-0.1v-0.1v-0.1v-0.1v-0.1v-0.1v-0.1v-0.1v-0.1V411v-0.1v-0.1v-0.1
	v-0.1v-0.1v0.5l0,0v-0.1v-0.1v-0.1v-0.1v-0.1v-0.1v-0.1v-0.1v-0.1V410v-0.1v-0.1v-0.1v0.3v-0.1v-0.1v-0.1v-0.1v-0.1v-0.1v-0.1v-0.1
	v-0.1V409v-0.1v-0.1v-0.1v0.3v-0.1v-0.1v-0.1v-0.1v-0.1v-0.1v-0.1v-0.1v-0.1V408v-0.1v-0.1v-0.1v0.3l0,0v-0.1v-0.1v-0.1v-0.1v-0.1
	v-0.1v-0.1v-0.1v-0.1V407v-0.1v-0.1v-0.1v0.3v-0.1v-0.1v-0.1v-0.1v-0.1v-0.1v-0.1v-0.1v-0.1V406v-0.1v-0.1v-0.1v0.3l0,0v-0.1v-0.1
	v-0.1v-0.1v-0.1v-0.1v-0.1v-0.1v-0.1V405v-0.1v-0.1v-0.1v-0.1v-0.1v0.5l0,0l0,0v-0.1v-0.1v-0.1v-0.1v-0.1v-0.1v-0.1v-0.1v-0.1V404
	v-0.1v-0.1v-0.1v-0.1v-0.1v0.5v-0.1v-0.1v-0.1v-0.1v-0.1v-0.1v-0.1v-0.1v-0.1V403v-0.1v-0.1v-0.1v-0.1v-0.1v0.5l0,0v-0.1v-0.1v-0.1
	v-0.1v-0.1v-0.1v-0.1v-0.1v-0.1V402v-0.1v-0.1v-0.1v-0.1v-0.1v0.5l0,0v-0.1v-0.1v-0.1l0,0v-0.1l0,0l0,0l0,0l0,0l0,0l0,0l0,0l0,0l0,0
	l0,0l0,0l0,0l0,0l0,0l0,0l0,0l0,0l0,0l0,0l0,0l0,0l0,0l0,0l0,0l0,0l0,0l0,0l0,0l0,0l0,0l0,0l0,0l0,0l0,0l0,0l0,0l0,0l0,0l0,0l0,0
	l0,0l0,0l0,0l0,0l0,0l0,0l0,0l0,0l0,0l0,0l0,0l0,0l0,0l0,0l0,0V399l0,0l0,0l0,0l0,0l0,0l0,0l0,0l0,0l0,0l0,0l0,0l0,0l0,0l0,0l0,0
	l0,0l0,0l0,0l0,0l0,0l0,0l0,0l0,0l0,0l0,0l0,0l0,0l0,0l0,0l0,0l0,0l0,0l0,0l0,0l0,0l0,0l0,0l0,0l0,0l0,0l0,0l0,0l0,0l0,0l0,0l0,0
	l0,0l0,0l0,0l0,0l0,0l0,0l0,0l0,0l0,0l0,0l0,0l0,0l0,0l0,0l0,0l0,0l0,0l0,0l0,0l0,0l0,0l0,0l0,0L251.1,396.9L251.1,396.9
	L251.1,396.9L251.1,396.9L251.1,396.9L251.1,396.9L251.1,396.9L251.1,396.9L251.1,396.9L251.1,396.9z"/>
<path vector-effect="non-scaling-stroke" d="M251.1,444.1c0-0.8,0-2.4,1.3-3.8s4.2-3.2,11.1-3.2s9.9,1.7,11.1,3.2c1.3,1.4,1.3,3,1.3,3.8l0,0l0,0l0,0l0,0
	l0,0l0,0l0,0l0,0l0,0l0,0l0,0l0,0l0,0l0,0l0,0l0,0l0,0l0,0l0,0l0,0l0,0l0,0l0,0l0,0l0,0l0,0l0,0l0,0l0,0l0,0l0,0l0,0l0,0l0,0l0,0
	l0,0l0,0l0,0l0,0l0,0l0,0l0,0l0,0v0.1l0,0l0,0l0,0l0,0l0,0l0,0l0,0l0,0l0,0l0,0l0,0l0,0l0,0l0,0l0,0l0,0l0,0l0,0l0,0l0,0l0,0l0,0
	l0,0l0,0l0,0l0,0l0,0l0,0l0,0l0,0l0,0l0,0l0,0l0,0l0,0l0,0l0,0l0,0l0,0l0,0l0,0l0,0l0,0l0,0l0,0l0,0l0,0l0,0l0,0l0,0l0,0l0,0l0,0
	l0,0l0,0l0,0l0,0l0,0l0,0l0,0l0,0l0,0l0,0l0,0l0,0l0,0l0,0l0,0l0,0l0,0l0,0l0,0l0,0l0,0l0,0l0,0l0,0l0,0l0,0l0,0l0,0l0,0l0,0l0,0
	l0,0l0,0l0,0l0,0l0,0l0,0l0,0v0.1l0,0v0.1v0.1v0.1v0.1v0.1v0.1v0.1v0.1v0.1v0.1v0.1v0.1v0.1v0.1v0.1v0.1v0.1v0.1v0.1v0.1v0.1v0.1
	v0.1v0.1v0.1v0.1v0.1v0.1v0.1v0.1v0.1v0.1l0,0v0.1v0.1v0.1v0.1v0.1v0.1v0.1v0.1v0.1v0.1v0.1v0.1v0.1v0.1v0.1v0.1v0.1v0.1v0.1v0.1
	v0.1v0.1v0.1v0.1v0.1v0.1v0.1v0.1v0.1v0.1v0.1v0.1v0.1v0.1v0.1v0.1v0.1v0.1v0.1v0.1v0.1v0.1v0.1v0.1v0.1v0.1v0.2v0.1v0.1v0.1v0.1
	v0.1v0.1v0.1v0.1v0.1v0.1v0.1v0.1v0.1v0.1l0,0v0.1v0.1v0.1v0.1v0.1v0.1v0.1v0.1v0.1v0.1v0.1v0.1v0.1v0.1v0.1v0.1v0.1v0.1v0.1v0.1
	v0.1v0.1v0.1v0.1v0.1v0.1v0.1v0.1v0.1v0.1v0.1v0.1v0.1v0.1v0.1v0.1v0.1v0.1v0.1v0.1v0.1v0.1v0.1v0.1v0.1v0.1v0.1v0.1v0.1v0.1v0.1
	v0.1v0.1v0.1v0.1v0.1v0.1v0.1v0.1v0.1v0.1v0.1v0.1v0.1v0.1v0.1v0.1v0.1v0.1v0.1v0.1v0.1v0.1v0.1v0.1v0.1v0.1v0.1v0.1v0.1v0.1v0.1
	v0.1v0.1v0.1v0.1v0.1v0.1v0.1v0.1v0.1v0.1v0.1v0.1v0.1v0.1v0.1v0.1v0.1v0.1v0.1v0.1v0.1v0.1v0.1v0.1v0.1v0.1v0.1v0.1v0.1v0.1v0.1
	v0.1v0.1v0.1v0.1v0.1v0.1v0.1v0.1v0.1l0,0l0,0l0,0l0,0l0,0l0,0l0,0l0,0l0,0l0,0l0,0l0,0l0,0l0,0l0,0l0,0l0,0l0,0l0,0l0,0l0,0l0,0
	l0,0l0,0l0,0l0,0l0,0l0,0l0,0l0,0l0,0l0,0l0,0l0,0l0,0l0,0l0,0l0,0l0,0l0,0l0,0l0,0l0,0l0,0l0,0l0,0l0,0l0,0l0,0l0,0l0,0l0,0l0,0
	l0,0l0,0l0,0l0,0l0,0l0,0l0,0l0,0H251l0,0l0,0l0,0l0,0l0,0l0,0l0,0l0,0l0,0l0,0l0,0l0,0l0,0l0,0l0,0l0,0l0,0l0,0l0,0l0,0l0,0l0,0
	l0,0l0,0l0,0l0,0l0,0l0,0l0,0l0,0l0,0l0,0l0,0l0,0l0,0l0,0l0,0l0,0l0,0l0,0l0,0l0,0l0,0l0,0l0,0l0,0l0,0l0,0l0,0l0,0l0,0l0,0l0,0
	l0,0l0,0l0,0l0,0l0,0l0,0l0,0l0,0v-0.1v-0.1v-0.1v-0.1v-0.1v-0.1v-0.1v-0.1V465v-0.1v-0.1v-0.1V462v-0.1v-0.1v-0.1v-0.1v-0.1v-0.1
	v-0.1v-0.1v-0.1V461v-0.1v-0.1v-0.1v-0.1v-0.1v0.5l0,0v-0.1v-0.1v-0.1v-0.1v-0.1v-0.1v-0.1v-0.1v-0.1V460v-0.1v-0.1v-0.1v-0.1v-0.1
	v0.5l0,0v-0.1v-0.1v-0.1v-0.1v-0.1v-0.1v-0.1v-0.1v-0.1V459v-0.1v-0.1v-0.1v-0.1v-0.1v0.5v-0.1v-0.1v-0.1v-0.1v-0.1v-0.1v-0.1v-0.1
	v-0.1V458v-0.1v-0.1v-0.1v-0.1v-0.1v0.5v-0.1v-0.1v-0.1v-0.1v-0.1v-0.1v-0.1v-0.1v-0.1V457v-0.1v-0.1v-0.1v0.3l0,0v-0.1v-0.1v-0.1
	v-0.1v-0.1v-0.1v-0.1v-0.1v-0.1V456v-0.1v-0.1v-0.1v0.3v-0.1v-0.1v-0.1v-0.1v-0.1v-0.1v-0.1v-0.1v-0.1V455v-0.1v-0.1v-0.1v0.3v-0.1
	v-0.1v-0.1v-0.1v-0.1v-0.1v-0.1v-0.1v-0.1V454v-0.1v-0.1v-0.1v0.3l0,0v-0.1v-0.1v-0.1v-0.1v-0.1v-0.1v-0.1v-0.1v-0.1V453v-0.1v-0.1
	v-0.1v-0.1v0.4l0,0v-0.1v-0.1v-0.1v-0.1v-0.1v-0.1v-0.1v-0.1v-0.1V452v-0.1v-0.1v-0.1v-0.1v0.4v-0.1v-0.1v-0.1v-0.1v-0.1v-0.1v-0.1
	v-0.1v-0.1V451v-0.1v-0.1v-0.1v-0.1v-0.1v0.5v-0.1v-0.1v-0.1v-0.1v-0.1v-0.1v-0.1v-0.1v-0.1V450v-0.1v-0.1v-0.1v-0.1v-0.1v0.5l0,0
	v-0.1v-0.1v-0.1v-0.1v-0.1v-0.1v-0.1v-0.1v-0.1V449v-0.1v-0.1v-0.1v-0.1v-0.1v0.5l0,0v-0.1l0,0l0,0l0,0l0,0l0,0l0,0l0,0l0,0l0,0l0,0
	l0,0l0,0l0,0l0,0l0,0l0,0l0,0l0,0l0,0l0,0l0,0l0,0l0,0l0,0l0,0l0,0l0,0l0,0l0,0l0,0l0,0l0,0l0,0l0,0l0,0l0,0l0,0l0,0l0,0l0,0l0,0
	l0,0l0,0l0,0l0,0l0,0l0,0l0,0l0,0l0,0l0,0l0,0l0,0l0,0l0,0l0,0l0,0l0,0l0,0l0,0l0,0l0,0l0,0l0,0l0,0l0,0l0,0l0,0l0,0l0,0l0,0l0,0
	l0,0l0,0l0,0l0,0l0,0l0,0l0,0l0,0l0,0l0,0l0,0l0,0l0,0l0,0l0,0l0,0l0,0l0,0V445l0,0l0,0l0,0l0,0l0,0l0,0l0,0l0,0l0,0l0,0l0,0l0,0
	l0,0l0,0l0,0l0,0l0,0l0,0l0,0l0,0l0,0l0,0l0,0l0,0l0,0l0,0l0,0l0,0l0,0l0,0l0,0l0,0l0,0l0,0l0,0l0,0L251.1,444.1L251.1,444.1
	L251.1,444.1L251.1,444.1L251.1,444.1L251.1,444.1L251.1,444.1L251.1,444.1L251.1,444.1z"/>
<path vector-effect="non-scaling-stroke" d="M142.1,576l0.1-24.8c0-1,0-3.1,1.4-5c1.3-1.8,4.2-3.8,11-3.8s9.7,2.1,11,3.8c1.4,1.9,1.4,4,1.4,5V576"/>
<path vector-effect="non-scaling-stroke" d="M240.2,501.9v-6.8c0.3-0.3,0.7-0.7,1.2-1.2c1.2-1.1,2.9-2.5,5.1-4c4.4-2.9,10.3-5.7,17-5.7s12.6,2.8,17,5.7
	c2.2,1.4,3.9,2.9,5.1,4c0.5,0.5,1,0.9,1.2,1.2v6.8H240.2z"/>
<path vector-effect="non-scaling-stroke" d="M315.9,395.1L315.9,395.1v23.3h-17.6v-23.3l0,0c0,0,0,0,0-0.1s0-0.3,0.1-0.5c0.1-0.5,0.4-1.1,0.8-1.8
	c0.9-1.2,2.9-2.8,7.9-2.8s7,1.6,7.9,2.8c0.5,0.6,0.7,1.3,0.8,1.8c0.1,0.2,0.1,0.4,0.1,0.5C315.9,395.1,315.9,395.1,315.9,395.1z"/>
<path vector-effect="non-scaling-stroke" d="M363.1,409.7L363.1,409.7V433h-17.6v-23.3l0,0c0,0,0,0,0-0.1s0-0.3,0.1-0.5c0.1-0.5,0.4-1.1,0.8-1.8
	c0.9-1.2,2.9-2.8,7.9-2.8s7,1.6,7.9,2.8c0.5,0.6,0.7,1.3,0.8,1.8c0.1,0.2,0.1,0.4,0.1,0.5C363.1,409.6,363.1,409.6,363.1,409.7z"/>
<path vector-effect="non-scaling-stroke" d="M145.3,409.7L145.3,409.7V433h-17.6v-23.3l0,0c0,0,0,0,0-0.1s0-0.3,0.1-0.5c0.1-0.5,0.4-1.1,0.8-1.8
	c0.9-1.2,2.9-2.8,7.9-2.8s7,1.6,7.9,2.8c0.5,0.6,0.7,1.3,0.8,1.8c0.1,0.2,0.1,0.4,0.1,0.5C145.3,409.6,145.3,409.6,145.3,409.7z"/>
<path vector-effect="non-scaling-stroke" d="M363.1,456.8L363.1,456.8v23.3h-17.6v-23.3l0,0c0,0,0,0,0-0.1s0-0.3,0.1-0.5c0.1-0.5,0.4-1.1,0.8-1.8
	c0.9-1.2,2.9-2.8,7.9-2.8s7,1.6,7.9,2.8c0.5,0.6,0.7,1.3,0.8,1.8c0.1,0.2,0.1,0.4,0.1,0.5C363.1,456.8,363.1,456.8,363.1,456.8z"/>
<path vector-effect="non-scaling-stroke" d="M145.3,456.8L145.3,456.8v23.3h-17.6v-23.3l0,0c0,0,0,0,0-0.1s0-0.3,0.1-0.5c0.1-0.5,0.4-1.1,0.8-1.8
	c0.9-1.2,2.9-2.8,7.9-2.8s7,1.6,7.9,2.8c0.5,0.6,0.7,1.3,0.8,1.8c0.1,0.2,0.1,0.4,0.1,0.5S145.3,456.8,145.3,456.8z"/>
<path vector-effect="non-scaling-stroke" d="M363.1,504L363.1,504v23.3h-17.6V504l0,0v-0.1c0-0.1,0-0.3,0.1-0.5c0.1-0.5,0.4-1.1,0.8-1.8
	c0.9-1.2,2.9-2.8,7.9-2.8s7,1.6,7.9,2.8c0.5,0.6,0.7,1.3,0.8,1.8c0.1,0.2,0.1,0.4,0.1,0.5C363.1,504,363.1,504,363.1,504z"/>
<path vector-effect="non-scaling-stroke" d="M145.3,504L145.3,504v23.3h-17.6V504l0,0v-0.1c0-0.1,0-0.3,0.1-0.5c0.1-0.5,0.4-1.1,0.8-1.8
	c0.9-1.2,2.9-2.8,7.9-2.8s7,1.6,7.9,2.8c0.5,0.6,0.7,1.3,0.8,1.8c0.1,0.2,0.1,0.4,0.1,0.5S145.3,504,145.3,504z"/>
<path vector-effect="non-scaling-stroke" d="M399.4,409.7L399.4,409.7V433h-17.6v-23.3l0,0c0,0,0,0,0-0.1s0-0.3,0.1-0.5c0.1-0.5,0.4-1.1,0.8-1.8
	c0.9-1.2,2.9-2.8,7.9-2.8s7,1.6,7.9,2.8c0.5,0.6,0.7,1.3,0.8,1.8c0.1,0.2,0.1,0.4,0.1,0.5C399.4,409.6,399.4,409.6,399.4,409.7z"/>
<path vector-effect="non-scaling-stroke" d="M181.6,409.7L181.6,409.7V433H164v-23.3l0,0c0,0,0,0,0-0.1s0-0.3,0.1-0.5c0.1-0.5,0.4-1.1,0.8-1.8
	c0.9-1.2,2.9-2.8,7.9-2.8s7,1.6,7.9,2.8c0.5,0.6,0.7,1.3,0.8,1.8c0.1,0.2,0.1,0.4,0.1,0.5C181.6,409.6,181.6,409.6,181.6,409.7z"/>
<path vector-effect="non-scaling-stroke" d="M399.4,456.8L399.4,456.8v23.3h-17.6v-23.3l0,0c0,0,0,0,0-0.1s0-0.3,0.1-0.5c0.1-0.5,0.4-1.1,0.8-1.8
	c0.9-1.2,2.9-2.8,7.9-2.8s7,1.6,7.9,2.8c0.5,0.6,0.7,1.3,0.8,1.8c0.1,0.2,0.1,0.4,0.1,0.5C399.4,456.8,399.4,456.8,399.4,456.8z"/>
<path vector-effect="non-scaling-stroke" d="M181.6,456.8L181.6,456.8v23.3H164v-23.3l0,0c0,0,0,0,0-0.1s0-0.3,0.1-0.5c0.1-0.5,0.4-1.1,0.8-1.8
	c0.9-1.2,2.9-2.8,7.9-2.8s7,1.6,7.9,2.8c0.5,0.6,0.7,1.3,0.8,1.8c0.1,0.2,0.1,0.4,0.1,0.5S181.6,456.8,181.6,456.8z"/>
<path vector-effect="non-scaling-stroke" d="M399.4,504L399.4,504v23.3h-17.6V504l0,0v-0.1c0-0.1,0-0.3,0.1-0.5c0.1-0.5,0.4-1.1,0.8-1.8
	c0.9-1.2,2.9-2.8,7.9-2.8s7,1.6,7.9,2.8c0.5,0.6,0.7,1.3,0.8,1.8c0.1,0.2,0.1,0.4,0.1,0.5C399.4,504,399.4,504,399.4,504z"/>
<path vector-effect="non-scaling-stroke" d="M181.6,504L181.6,504v23.3H164V504l0,0v-0.1c0-0.1,0-0.3,0.1-0.5c0.1-0.5,0.4-1.1,0.8-1.8
	c0.9-1.2,2.9-2.8,7.9-2.8s7,1.6,7.9,2.8c0.5,0.6,0.7,1.3,0.8,1.8c0.1,0.2,0.1,0.4,0.1,0.5S181.6,504,181.6,504z"/>
<polyline vector-effect="non-scaling-stroke" points="240.2,576 240.2,513.3 286.9,513.3 286.9,576 "/>
<circle vector-effect="non-scaling-stroke" cx="263.5" cy="344.3" r="12.4"/>
<circle vector-effect="non-scaling-stroke" cx="307.1" cy="500.4" r="8.8"/>
<circle vector-effect="non-scaling-stroke" cx="220" cy="500.4" r="8.8"/>
<path vector-effect="non-scaling-stroke" d="M0,573.2"/>
<path vector-effect="non-scaling-stroke" d="M1096,574.5"/>
<path vector-effect="non-scaling-stroke" d="M549,427.9c-8.3,15.1-37,87.5-1.2,117.1C586.5,514.4,557.5,444.5,549,427.9z"/>
<path vector-effect="non-scaling-stroke" d="M547.9,520.8V576"/>
<path vector-effect="non-scaling-stroke" d="M508.9,537.5c15.9,0,28.8-12.5,28.8-27.9s-12.9-27.9-28.8-27.9c-15.9,0-28.8,12.5-28.8,27.9
	C480.1,525,493,537.5,508.9,537.5z"/>
<path vector-effect="non-scaling-stroke" d="M509.8,522.6V576"/>
<path vector-effect="non-scaling-stroke" d="M603.7,548.7c10.8,0,19.5-9.2,19.5-20.4s-8.7-20.4-19.5-20.4s-19.5,9.2-19.5,20.4S592.9,548.7,603.7,548.7z"/>
<path vector-effect="non-scaling-stroke" d="M603.7,539.4V576"/>
<path class="building-text" d="M692.9,223.5c0,2.1-0.7,3.6-2.2,4.7c-1.4,1.1-3.2,1.6-5.4,1.6c-2.5,0-4.5-0.6-6-1.9
	c-1.4-1.3-2.1-3-2.2-5.1h4.1c0.1,1.1,0.5,2,1.2,2.6s1.7,0.9,2.9,0.9c1,0,1.8-0.2,2.5-0.7s1-1.1,1-2c0-0.5-0.1-1-0.3-1.4
	s-0.5-0.7-1-1s-0.9-0.5-1.2-0.7c-0.4-0.1-0.9-0.3-1.5-0.5l-1.2-0.4c-3.7-1.1-5.5-3.1-5.5-6.1c0-1.9,0.7-3.5,2.1-4.6
	c1.4-1.1,3.2-1.7,5.3-1.7c2.2,0,4,0.6,5.4,1.8s2.1,2.7,2.1,4.6h-4.1c-0.1-0.9-0.4-1.6-1-2.1s-1.4-0.8-2.4-0.8s-1.8,0.2-2.4,0.7
	c-0.6,0.5-0.9,1.1-0.9,1.9c0,0.4,0.1,0.8,0.3,1.2c0.2,0.3,0.5,0.6,0.9,0.9c0.4,0.2,0.8,0.4,1.1,0.5s0.8,0.3,1.4,0.5l1.1,0.3
	c0.5,0.2,1,0.3,1.4,0.5s1,0.4,1.6,0.8c0.6,0.4,1.1,0.8,1.5,1.2s0.8,1,1.1,1.8C692.8,221.8,692.9,222.6,692.9,223.5z M702.8,229.8
	c-3.3,0-4.9-1.5-4.9-4.6V217h-3.3v-3.2h1.1c1,0,1.6-0.2,2-0.5c0.4-0.4,0.6-1,0.6-1.9v-1.9h3.6v4.3h4.1v3.2h-4v7.7
	c0,0.4,0,0.7,0.1,0.9s0.3,0.5,0.6,0.7s0.8,0.3,1.4,0.3c0.5,0,1-0.1,1.5-0.2v3C704.6,229.7,703.7,229.8,702.8,229.8z M713.3,211.8
	c-0.4,0.4-0.9,0.6-1.5,0.6s-1.1-0.2-1.5-0.6c-0.4-0.4-0.7-1-0.7-1.6s0.2-1.1,0.6-1.5c0.4-0.4,1-0.6,1.6-0.6s1.1,0.2,1.5,0.6
	c0.4,0.4,0.6,0.9,0.6,1.5C714,210.8,713.8,211.4,713.3,211.8z M718.1,212.4c-0.6,0-1.1-0.2-1.5-0.7c-0.4-0.4-0.6-0.9-0.6-1.5
	s0.2-1.1,0.6-1.5c0.4-0.4,1-0.6,1.5-0.6c0.6,0,1.1,0.2,1.5,0.6c0.4,0.4,0.6,0.9,0.6,1.5s-0.2,1.1-0.6,1.6
	C719.2,212.2,718.7,212.4,718.1,212.4z M722.9,226.5h0.4v3h-1.7c-1.7,0-2.7-0.6-3.2-1.9c-1.2,1.5-2.9,2.2-5.2,2.2
	c-1.7,0-3-0.4-4-1.2s-1.5-1.9-1.5-3.4c0-1.4,0.5-2.5,1.4-3.3c1-0.8,2.2-1.3,3.8-1.4l4.9-0.5v-0.7c0-0.8-0.2-1.5-0.7-1.9
	s-1.1-0.7-1.9-0.7c-1.6,0-2.5,0.8-2.8,2.4h-4c0.2-1.7,0.9-3,2.1-4c1.2-1,2.8-1.5,4.8-1.5s3.6,0.5,4.8,1.5s1.8,2.5,1.8,4.5v5.7
	C721.8,226.1,722.2,226.5,722.9,226.5z M717.8,223.5v-0.8l-3.5,0.4c-1.7,0.2-2.5,0.9-2.5,2s0.7,1.7,2.2,1.7c1,0,1.9-0.3,2.7-0.8
	C717.4,225.4,717.8,224.6,717.8,223.5z M736.7,207.2h4v22.3h-3.3l-0.3-1.9h-0.3c-1.1,1.4-2.6,2.2-4.7,2.2c-2.1,0-3.9-0.8-5.3-2.3
	c-1.4-1.5-2.1-3.5-2.1-5.9c0-2.5,0.7-4.5,2.1-5.9c1.4-1.5,3.2-2.2,5.3-2.2c2,0,3.5,0.6,4.5,1.8L736.7,207.2L736.7,207.2z
	 M729.9,225.1c0.7,0.9,1.7,1.3,2.9,1.3s2.1-0.4,2.8-1.3c0.7-0.9,1.1-2,1.1-3.4s-0.3-2.5-1.1-3.4c-0.7-0.9-1.7-1.3-2.8-1.3
	s-2.2,0.4-2.9,1.3s-1.1,2-1.1,3.4C728.8,223,729.2,224.2,729.9,225.1z M751.1,229.8c-3.3,0-4.9-1.5-4.9-4.6V217h-3.3v-3.2h1.1
	c1,0,1.6-0.2,2-0.5c0.4-0.4,0.6-1,0.6-1.9v-1.9h3.6v4.3h4.1v3.2h-4.1v7.7c0,0.4,0,0.7,0.1,0.9s0.3,0.5,0.6,0.7s0.8,0.3,1.4,0.3
	c0.5,0,1-0.1,1.5-0.2v3C752.8,229.7,751.9,229.8,751.1,229.8z M758.7,211.8c-0.7,0-1.2-0.2-1.8-0.7c-0.5-0.5-0.7-1-0.7-1.7
	s0.2-1.3,0.7-1.7c0.5-0.5,1.1-0.7,1.8-0.7s1.2,0.2,1.7,0.7s0.7,1,0.7,1.7c0,0.6-0.2,1.2-0.7,1.7S759.4,211.8,758.7,211.8z
	 M756.7,229.5v-15.7h4v15.7H756.7L756.7,229.5z M770.5,229.8c-2.2,0-3.8-0.5-5-1.4c-1.2-1-1.8-2.3-1.9-3.9h3.9
	c0.2,1.6,1.2,2.4,3.1,2.4c0.7,0,1.2-0.1,1.6-0.4c0.4-0.3,0.7-0.7,0.7-1.2c0-0.6-0.2-1-0.7-1.3c-0.4-0.3-1.1-0.6-2.1-0.9l-1.5-0.4
	c-0.6-0.1-1.2-0.3-1.6-0.5c-0.4-0.2-0.9-0.4-1.4-0.8c-0.5-0.3-0.8-0.8-1.1-1.3c-0.2-0.5-0.4-1.2-0.4-1.9c0-1.5,0.6-2.7,1.7-3.5
	c1.1-0.9,2.5-1.3,4.2-1.3c2,0,3.5,0.4,4.6,1.4c1.1,0.9,1.7,2.1,1.8,3.4h-3.9c-0.2-1.2-1-1.8-2.5-1.8c-0.6,0-1.1,0.1-1.5,0.4
	c-0.4,0.3-0.6,0.7-0.6,1.2s0.2,0.9,0.6,1.1c0.4,0.2,1.1,0.4,2,0.7l1.5,0.4c1.5,0.4,2.7,0.9,3.5,1.7s1.2,1.8,1.2,3.2
	c0,1.6-0.6,2.7-1.7,3.5C773.8,229.4,772.3,229.8,770.5,229.8z M787,229.8c-2.5,0-4.4-0.8-6-2.3c-1.5-1.5-2.3-3.4-2.3-5.8
	c0-2.4,0.8-4.4,2.3-5.9c1.6-1.5,3.5-2.3,5.8-2.3c1.9,0,3.6,0.5,5.1,1.6c1.4,1,2.3,2.5,2.5,4.5h-4c-0.2-0.8-0.6-1.4-1.2-1.9
	c-0.6-0.5-1.4-0.7-2.3-0.7c-1.2,0-2.2,0.4-3,1.4c-0.8,0.9-1.2,2-1.2,3.4s0.4,2.5,1.1,3.4c0.8,0.8,1.8,1.2,3.1,1.2
	c1.8,0,3-0.8,3.5-2.3h4c-0.3,1.8-1.1,3.2-2.5,4.2C790.7,229.3,789,229.8,787,229.8z M806.2,213.5c1.9,0,3.4,0.6,4.5,1.7
	c1.1,1.1,1.7,2.7,1.7,4.8v9.5h-4v-8.7c0-1.2-0.3-2.2-0.9-2.8c-0.6-0.7-1.4-1-2.4-1s-1.9,0.3-2.6,1c-0.7,0.7-1,1.7-1,3v8.5h-4v-22.3
	h4v8.4h0.2C802.7,214.2,804.2,213.5,806.2,213.5z M826.6,224.6h3.9c-0.3,1.6-1.1,2.9-2.4,3.9c-1.3,0.9-2.9,1.4-4.9,1.4
	c-2.4,0-4.3-0.7-5.8-2.2s-2.3-3.4-2.3-5.8c0-2.5,0.8-4.5,2.3-6s3.4-2.3,5.6-2.3c2.1,0,3.8,0.7,5.3,2c1.4,1.4,2.2,3.4,2.2,6
	c0,0.2,0,0.6-0.1,1.2h-11.3c0.1,1.1,0.5,2.1,1.2,2.8s1.7,1.1,2.9,1.1C825,226.6,826.1,225.9,826.6,224.6z M823,216.7
	c-1,0-1.9,0.3-2.6,0.9c-0.7,0.6-1.1,1.4-1.2,2.4h7.5c0-1-0.4-1.8-1.1-2.4C824.8,217,824,216.7,823,216.7z M839.7,229.8
	c-2.2,0-3.8-0.5-5-1.4c-1.2-1-1.8-2.3-1.9-3.9h3.9c0.2,1.6,1.2,2.4,3.1,2.4c0.7,0,1.2-0.1,1.6-0.4c0.4-0.3,0.7-0.7,0.7-1.2
	c0-0.6-0.2-1-0.7-1.3c-0.4-0.3-1.1-0.6-2.1-0.9l-1.5-0.4c-0.6-0.1-1.2-0.3-1.6-0.5c-0.4-0.2-0.9-0.4-1.4-0.8
	c-0.5-0.3-0.8-0.8-1.1-1.3c-0.2-0.5-0.4-1.2-0.4-1.9c0-1.5,0.6-2.7,1.7-3.5c1.1-0.9,2.5-1.3,4.2-1.3c2,0,3.5,0.4,4.6,1.4
	c1.1,0.9,1.7,2.1,1.8,3.4h-3.9c-0.2-1.2-1-1.8-2.5-1.8c-0.6,0-1.1,0.1-1.5,0.4c-0.4,0.3-0.6,0.7-0.6,1.2s0.2,0.9,0.6,1.1
	c0.4,0.2,1.1,0.4,2,0.7l1.5,0.4c1.5,0.4,2.7,0.9,3.5,1.7s1.2,1.8,1.2,3.2c0,1.6-0.6,2.7-1.7,3.5
	C842.9,229.4,841.5,229.8,839.7,229.8z M870.5,229.5l-7-9.4h-1.6v9.4h-4.1v-21.9h4.1v8.8h1.6l6.2-8.8h4.6l-7.4,10.4v0.2l8.3,11.3
	H870.5L870.5,229.5z M891.4,226.5h0.4v3h-1.7c-1.7,0-2.7-0.6-3.2-1.9c-1.2,1.5-2.9,2.2-5.2,2.2c-1.7,0-3-0.4-4-1.2s-1.5-1.9-1.5-3.4
	c0-1.4,0.5-2.5,1.4-3.3c1-0.8,2.2-1.3,3.8-1.4l4.9-0.5v-0.7c0-0.8-0.2-1.5-0.7-1.9s-1.1-0.7-1.9-0.7c-1.6,0-2.5,0.8-2.8,2.4h-4
	c0.2-1.7,0.9-3,2.1-4c1.2-1,2.8-1.5,4.8-1.5s3.6,0.5,4.8,1.5s1.8,2.5,1.8,4.5v5.7C890.3,226.1,890.7,226.5,891.4,226.5z
	 M886.3,223.5v-0.8l-3.5,0.4c-1.7,0.2-2.5,0.9-2.5,2s0.7,1.7,2.2,1.7c1,0,1.9-0.3,2.7-0.8C885.9,225.4,886.3,224.6,886.3,223.5z
	 M908.9,213.8v15.7h-3.7l-0.3-1.9h-0.2c-1.1,1.4-2.6,2.2-4.6,2.2c-1.9,0-3.4-0.6-4.5-1.7c-1.1-1.1-1.6-2.7-1.6-4.8v-9.5h4v8.7
	c0,1.2,0.3,2.2,0.9,2.9c0.6,0.6,1.4,1,2.5,1c1,0,1.9-0.3,2.5-1c0.7-0.7,1-1.7,1-3v-8.5L908.9,213.8L908.9,213.8z M918.3,212.4v1.5h4
	v3.2h-4v12.5h-4V217H911v-3.2h3.3v-1.7c0-1.6,0.5-2.8,1.4-3.6c1-0.8,2.2-1.2,3.8-1.2c0.9,0,1.9,0.2,3,0.5l-0.7,2.9
	c-0.5-0.2-1-0.2-1.6-0.2C919,210.4,918.3,211.1,918.3,212.4z M933.5,213.5c1.9,0,3.4,0.6,4.5,1.7c1.1,1.1,1.7,2.7,1.7,4.8v9.5h-4
	v-8.7c0-1.2-0.3-2.2-0.9-2.8c-0.6-0.7-1.4-1-2.4-1s-1.9,0.3-2.6,1c-0.7,0.7-1,1.7-1,3v8.5h-4v-22.3h4v8.4h0.2
	C930,214.2,931.5,213.5,933.5,213.5z M957.6,226.5h0.4v3h-1.7c-1.7,0-2.7-0.6-3.2-1.9c-1.2,1.5-2.9,2.2-5.2,2.2c-1.7,0-3-0.4-4-1.2
	s-1.5-1.9-1.5-3.4c0-1.4,0.5-2.5,1.4-3.3c1-0.8,2.2-1.3,3.8-1.4l4.9-0.5v-0.7c0-0.8-0.2-1.5-0.7-1.9s-1.1-0.7-1.9-0.7
	c-1.6,0-2.5,0.8-2.8,2.4h-4c0.2-1.7,0.9-3,2.1-4c1.2-1,2.8-1.5,4.8-1.5s3.6,0.5,4.8,1.5s1.8,2.5,1.8,4.5v5.7
	C956.5,226.1,956.9,226.5,957.6,226.5z M952.5,223.5v-0.8l-3.5,0.4c-1.7,0.2-2.5,0.9-2.5,2s0.7,1.7,2.2,1.7c1,0,1.9-0.3,2.7-0.8
	C952.1,225.4,952.5,224.6,952.5,223.5z M975.1,213.8v15.7h-3.7l-0.3-1.9h-0.2c-1.1,1.4-2.6,2.2-4.6,2.2c-1.9,0-3.4-0.6-4.5-1.7
	c-1.1-1.1-1.6-2.7-1.6-4.8v-9.5h4v8.7c0,1.2,0.3,2.2,0.9,2.9c0.6,0.6,1.4,1,2.4,1s1.9-0.3,2.5-1c0.7-0.7,1-1.7,1-3v-8.5L975.1,213.8
	L975.1,213.8z M984.9,229.8c-2.2,0-3.8-0.5-5-1.4c-1.2-1-1.8-2.3-2-3.9h3.9c0.2,1.6,1.2,2.4,3.1,2.4c0.7,0,1.2-0.1,1.6-0.4
	c0.4-0.3,0.7-0.7,0.7-1.2c0-0.6-0.2-1-0.7-1.3c-0.4-0.3-1.1-0.6-2.1-0.9l-1.5-0.4c-0.6-0.1-1.2-0.3-1.6-0.5
	c-0.4-0.2-0.9-0.4-1.4-0.8c-0.5-0.3-0.8-0.8-1.1-1.3s-0.4-1.2-0.4-1.9c0-1.5,0.6-2.7,1.7-3.5c1.1-0.9,2.5-1.3,4.2-1.3
	c2,0,3.5,0.4,4.6,1.4c1.1,0.9,1.7,2.1,1.8,3.4h-3.8c-0.2-1.2-1-1.8-2.5-1.8c-0.6,0-1.1,0.1-1.5,0.4c-0.4,0.3-0.6,0.7-0.6,1.2
	s0.2,0.9,0.6,1.1c0.4,0.2,1.1,0.4,2,0.7l1.5,0.4c1.5,0.4,2.7,0.9,3.5,1.7s1.2,1.8,1.2,3.2c0,1.6-0.6,2.7-1.7,3.5
	C988.1,229.4,986.7,229.8,984.9,229.8z"/>
<g>
	<g>
		<path class="building-text" d="M224.9,229.5h4v-22.3h-4V229.5z M214.6,226.3c-1.3,0-2.3-0.4-3.1-1.2s-1.1-2-1.1-3.3s0.4-2.5,1.2-3.4
			s1.8-1.3,3-1.3c0.9,0,1.7,0.2,2.3,0.7s1.1,1.1,1.2,1.9h4c-0.2-1.9-1.1-3.4-2.5-4.5c-1.4-1-3.1-1.6-5.1-1.6c-2.3,0-4.3,0.8-5.8,2.3
			s-2.3,3.5-2.3,5.9s0.8,4.3,2.3,5.8s3.5,2.3,6,2.3c2,0,3.8-0.5,5.1-1.5c1.4-1,2.2-2.4,2.5-4.2h-4
			C217.6,225.6,216.4,226.3,214.6,226.3z M196.8,226.6c-1.2,0-2.2-0.4-2.9-1.1c-0.7-0.7-1.1-1.7-1.2-2.8H204c0-0.6,0.1-1,0.1-1.2
			c0-2.7-0.7-4.7-2.2-6c-1.4-1.4-3.2-2-5.3-2c-2.2,0-4.1,0.8-5.6,2.3s-2.3,3.5-2.3,6c0,2.4,0.8,4.3,2.3,5.8s3.4,2.2,5.8,2.2
			c2,0,3.6-0.5,4.9-1.4c1.3-0.9,2.1-2.2,2.4-3.9h-3.9C199.8,225.9,198.7,226.6,196.8,226.6z M194,217.7c0.7-0.6,1.6-0.9,2.6-0.9
			s1.9,0.3,2.5,0.9c0.7,0.6,1,1.4,1.1,2.4h-7.5C192.9,219.1,193.3,218.3,194,217.7z M364,207.6h-3.4l-2.4,4.5h3.1L364,207.6z
			 M185.2,217.8c0.8-1.1,1.1-2.4,1.1-3.8c0-1.9-0.6-3.5-1.9-4.7c-1.3-1.2-3-1.8-5.2-1.8h-8.7v22h4V221h3.6l4.6,8.6h4.4l-5-9.3
			C183.4,219.7,184.5,218.9,185.2,217.8z M178.8,217.4h-4.2V211h4.2c1.1,0,1.9,0.3,2.5,0.8s0.9,1.3,0.9,2.3c0,0.9-0.3,1.7-0.9,2.3
			C180.7,217.2,179.8,217.4,178.8,217.4z M267.6,213.5c-2.1,0-3.7,0.8-4.9,2.5h-0.2c-0.8-1.7-2.1-2.5-4.1-2.5
			c-1.8,0-3.3,0.7-4.3,2.2h-0.2l-0.3-1.8h-3.7v15.7h4v-9.3c0-1,0.3-1.8,0.9-2.3c0.6-0.6,1.2-0.9,2-0.9c0.8,0,1.4,0.3,1.9,0.8
			s0.8,1.3,0.8,2.3v9.4h4v-9.3c0-1,0.3-1.8,0.8-2.4s1.2-0.9,2.1-0.9c0.8,0,1.4,0.3,1.9,0.8s0.8,1.3,0.8,2.2v9.5h4v-10.2
			c0-1.9-0.5-3.3-1.4-4.3S269.2,213.5,267.6,213.5z M360,226.6c-1.2,0-2.2-0.4-2.9-1.1c-0.7-0.7-1.1-1.7-1.2-2.8h11.3
			c0-0.6,0.1-1,0.1-1.2c0-2.7-0.7-4.7-2.2-6c-1.4-1.4-3.2-2-5.3-2c-2.2,0-4.1,0.8-5.6,2.3s-2.3,3.5-2.3,6c0,2.4,0.8,4.3,2.3,5.8
			s3.4,2.2,5.8,2.2c2,0,3.6-0.5,4.9-1.4s2.1-2.2,2.4-3.9h-3.9C363,225.9,361.8,226.6,360,226.6z M357.2,217.7
			c0.7-0.6,1.6-0.9,2.6-0.9s1.9,0.3,2.5,0.9c0.7,0.6,1,1.4,1.1,2.4h-7.5C356.1,219.1,356.5,218.3,357.2,217.7z M346.7,214.1
			c-0.7,0.4-1.3,1-1.8,1.9h-0.2l-0.4-2.2h-3.6v15.7h4v-7.3c0-1.3,0.3-2.5,1-3.4s1.8-1.4,3.4-1.4c0.6,0,1.2,0,1.7,0.1v-4h-1.1
			C348.3,213.5,347.4,213.7,346.7,214.1z M381,224.6c-0.4,1.4-1.6,2.1-3.5,2.1c-1.2,0-2.1-0.4-2.9-1.1c-0.7-0.7-1.1-1.7-1.2-2.8
			h11.3c0-0.6,0.1-1,0.1-1.2c0-2.7-0.7-4.7-2.2-6c-1.4-1.4-3.2-2-5.3-2c-2.2,0-4.1,0.8-5.6,2.3s-2.3,3.5-2.3,6
			c0,2.4,0.8,4.3,2.3,5.8s3.4,2.2,5.8,2.2c2,0,3.6-0.5,4.9-1.4s2.1-2.2,2.4-3.9L381,224.6L381,224.6z M374.8,217.7
			c0.7-0.6,1.6-0.9,2.6-0.9s1.9,0.3,2.5,0.9c0.7,0.6,1,1.4,1.1,2.4h-7.5C373.7,219.1,374.1,218.3,374.8,217.7z M301,225
			c-1,0.6-2.1,0.9-3.5,0.9c-1.9,0-3.5-0.7-4.7-2c-1.2-1.4-1.9-3.2-1.9-5.3s0.6-3.9,1.8-5.4c1.2-1.4,2.8-2.2,4.7-2.2
			c1.3,0,2.4,0.3,3.3,1c0.9,0.6,1.5,1.5,1.9,2.7h4.5c-0.4-2.4-1.4-4.2-3.2-5.5s-3.9-2-6.5-2c-3.2,0-5.8,1.1-7.8,3.2
			c-2,2.1-3,4.8-3,8.2c0,3.3,1,6,2.9,8.1s4.6,3.1,7.9,3.1c2.6,0,4.8-0.6,6.7-1.9c1.9-1.3,3-3.1,3.3-5.4l0,0H303
			C302.6,223.5,302,224.4,301,225z M323.8,225.3v-5.7c0-2-0.6-3.5-1.9-4.5c-1.2-1-2.8-1.5-4.8-1.5s-3.6,0.5-4.8,1.5
			c-1.2,1-1.9,2.3-2.1,4h4c0.3-1.6,1.2-2.4,2.8-2.4c0.8,0,1.4,0.2,1.9,0.7c0.5,0.4,0.7,1.1,0.7,1.9v0.7l-4.9,0.5
			c-1.5,0.1-2.8,0.6-3.8,1.4c-0.9,0.8-1.4,1.9-1.4,3.3c0,1.5,0.5,2.7,1.5,3.4c1,0.8,2.4,1.2,4,1.2c2.3,0,4-0.7,5.2-2.2
			c0.5,1.2,1.5,1.9,3.2,1.9h1.7v-3h-0.4C324.2,226.5,323.8,226.1,323.8,225.3z M319.8,223.5c0,1.1-0.4,2-1.2,2.5
			c-0.8,0.5-1.7,0.8-2.7,0.8c-1.5,0-2.2-0.6-2.2-1.7s0.8-1.8,2.5-2l3.5-0.4v0.8H319.8z M245.9,225.3v-5.7c0-2-0.6-3.5-1.9-4.5
			c-1.2-1-2.8-1.5-4.8-1.5s-3.6,0.5-4.8,1.5s-1.9,2.3-2.1,4h4c0.3-1.6,1.2-2.4,2.8-2.4c0.8,0,1.4,0.2,1.9,0.7
			c0.5,0.4,0.7,1.1,0.7,1.9v0.7l-4.9,0.5c-1.5,0.1-2.8,0.6-3.8,1.4c-0.9,0.8-1.4,1.9-1.4,3.3c0,1.5,0.5,2.7,1.5,3.4
			c1,0.8,2.4,1.2,4,1.2c2.3,0,4-0.7,5.2-2.2c0.5,1.2,1.5,1.9,3.2,1.9h1.7v-3H247C246.3,226.5,245.9,226.1,245.9,225.3z M241.9,223.5
			c0,1.1-0.4,2-1.2,2.5s-1.7,0.8-2.7,0.8c-1.5,0-2.2-0.6-2.2-1.7s0.8-1.8,2.5-2l3.5-0.4L241.9,223.5L241.9,223.5z M276.5,222.3h7.2
			v-3.6h-7.2V222.3z M334.2,214.1c-0.7,0.4-1.3,1-1.8,1.9h-0.2l-0.4-2.2h-3.6v15.7h4v-7.3c0-1.3,0.3-2.5,1-3.4s1.8-1.4,3.3-1.4
			c0.6,0,1.2,0,1.7,0.1v-4H337C335.8,213.5,334.9,213.7,334.2,214.1z"/>
	</g>
</g>
</svg>
