<svg viewBox="0 0 66 67" fill="none" xmlns="http://www.w3.org/2000/svg"><path fill-rule="evenodd" clip-rule="evenodd" d="M32 45c5.523 0 10-4.477 10-10s-4.477-10-10-10-10 4.477-10 10 4.477 10 10 10zm0 4c7.732 0 14-6.268 14-14s-6.268-14-14-14-14 6.268-14 14 6.268 14 14 14z" fill="#F9423A"/><path fill-rule="evenodd" clip-rule="evenodd" d="M48.898.83l2.829 14.142 14.142 2.829-18.683 18.683-7.071-1.414-6.458 6.457-8.485-8.485 6.457-6.458-1.414-7.07L48.898.83zM35.971 27.899l-5.142 5.143 2.828 2.828 5.143-5.142 7.071 1.414 11.885-11.885-9.428-1.886-1.886-9.428-11.885 11.885 1.414 7.071zm2.928-5.756l.943 4.714 4.714.942 5.086-5.085-4.714-.943-.943-4.714-5.086 5.086z" fill="#fff"/><path fill-rule="evenodd" clip-rule="evenodd" d="M37.978 11.75A24.044 24.044 0 0032 11C18.745 11 8 21.745 8 35s10.745 24 24 24 24-10.745 24-24c0-2.236-.306-4.4-.878-6.453l-3.36 3.36C51.92 32.915 52 33.948 52 35c0 11.046-8.954 20-20 20s-20-8.954-20-20 8.954-20 20-20c.87 0 1.725.055 2.565.163l3.413-3.413zm12.558 15.726l3.027-3.026a24.053 24.053 0 00-4.028-5.837l-1.208-.242-.235-1.177a24.033 24.033 0 00-5.95-3.952l-3.05 3.052a19.938 19.938 0 013.755 1.9l1.138-1.137.457 2.283a20.12 20.12 0 012.985 2.93l2.215.444-1.077 1.076a19.95 19.95 0 011.971 3.686z" fill="#F9423A"/><path fill-rule="evenodd" clip-rule="evenodd" d="M48.327 18.371l-1.886-9.428-11.884 11.885 1.414 7.071-3.18 3.18a4 4 0 103.003 2.654l3.006-3.005 7.07 1.414 11.885-11.885-9.428-1.886zM44.556 27.8l-4.714-.942-.943-4.714 5.086-5.086.943 4.714 4.714.943-5.086 5.085z" fill="#F9423A"/></svg>