<svg viewBox="0 0 31 31" xmlns="http://www.w3.org/2000/svg"><g fill="none" fill-rule="evenodd"><path fill="#F9423A" d="M11 9h8v8h-8zM17.902 4.902l5.196-3 3 5.196-5.196 3zM27 0h4v4h-4z"/><path d="M23.513 13.368H5.908l-.686-3.72A.801.801 0 004.417 9H.804a.807.807 0 00-.696.396.78.78 0 000 .791c.143.245.409.396.696.396h2.949l.678 3.692a.728.728 0 00.013.08l1.566 8.482c.258 1.376 1.478 2.374 2.9 2.374h10.245c1.342 0 2.516-.892 2.854-2.171l2.281-8.675a.781.781 0 00-.142-.682.809.809 0 00-.635-.307v-.008zM9.263 26.368a2.316 2.316 0 100 4.632 2.316 2.316 0 000-4.632zM18.524 26.368A2.316 2.316 0 1018.529 31a2.316 2.316 0 00-.005-4.632z" fill="#2B0035" fill-rule="nonzero"/></g></svg>