<svg xmlns="http://www.w3.org/2000/svg" viewBox="0 0 32 32">
  <g fill="none" fill-rule="evenodd">
    <path fill="currentColor" d="M16.8281,3 L14,0.1719 L11.1719,3 L14,5.8281 L16.8281,3 Z M8,21 C6.8954305,21 6,21.8954305 6,23 C6,24.1045695 6.8954305,25 8,25 C9.1045695,25 10,24.1045695 10,23 C10,21.8954305 9.1045695,21 8,21 Z M19,8 L19,6 L15,6 L15,8 L11,8 L11,5 L7,5 L7,8 L4.6655,8 L3.8086,4 L0,4 L0,6 L2.1914,6 L5.1914,20 L19.8193,20 L22.2193,8 L19,8 Z M18.1807,18 L6.8086,18 L5.0942,10 L19.78,10 L18.1807,18 Z M17,21 C15.8954305,21 15,21.8954305 15,23 C15,24.1045695 15.8954305,25 17,25 C18.1045695,25 19,24.1045695 19,23 C19,21.8954305 18.1045695,21 17,21 Z" transform="translate(4 3)"/>
  </g>
</svg>
