<svg xmlns="http://www.w3.org/2000/svg" viewBox="0 0 32 32">
  <g fill="none" fill-rule="evenodd">
    <path fill="currentColor" d="M8,17 C6.8954305,17 6,17.8954305 6,19 C6,20.1045695 6.8954305,21 8,21 C9.1045695,21 10,20.1045695 10,19 C10,17.8954305 9.1045695,17 8,17 Z M4.666,4 L3.8086,0 L0,0 L0,2 L2.1914,2 L5.1914,16 L19.8193,16 L22.2193,4 L4.666,4 Z M18.1807,14 L6.8086,14 L5.0938,6 L19.78,6 L18.1807,14 Z M17,17 C15.8954305,17 15,17.8954305 15,19 C15,20.1045695 15.8954305,21 17,21 C18.1045695,21 19,20.1045695 19,19 C19,17.8954305 18.1045695,17 17,17 Z" transform="translate(4 7)"/>
  </g>
</svg>
