<svg xmlns="http://www.w3.org/2000/svg" viewBox="0 0 32 32">
  <g fill="none" fill-rule="evenodd">
    <path fill="currentColor" d="M10,18 L4,18 L4,20 L10,20 L10,18 Z M0,0 L0,24 L18,24 L18,0 L0,0 Z M16,22 L2,22 L2,2 L16,2 L16,22 Z M12,20 L14,20 L14,18 L12,18 L12,20 Z M5.4337,9.5467 L4.168,11.4453 L5.832,12.5547 L7,10.8027 L8.168,12.5547 L9.832,11.4453 L8.5663,9.5467 C9.71214569,8.84526131 10.2519326,7.46753949 9.88755593,6.17440059 C9.52317925,4.88126169 8.34349491,3.98804717 7,3.98804717 C5.65650509,3.98804717 4.47682075,4.88126169 4.11244407,6.17440059 C3.74806739,7.46753949 4.28785431,8.84526131 5.4337,9.5467 L5.4337,9.5467 Z M7,6 C7.55228475,6 8,6.44771525 8,7 C8,7.55228475 7.55228475,8 7,8 C6.44771525,8 6,7.55228475 6,7 C6.0004962,6.44792091 6.44792091,6.0004962 7,6 Z M14,15 L4,15 L4,17 L14,17 L14,15 Z" transform="translate(7 4)"/>
  </g>
</svg>
