<svg xmlns="http://www.w3.org/2000/svg" viewBox="0 0 32 32">
  <g fill="none" fill-rule="evenodd">
    <path fill="currentColor" d="M6.6968,14.3618 L7.1401,16.3118 L18.2201,13.7933 L17.7768,11.8433 L6.6968,14.3618 Z M27.7168,13.5684 L25.24,2.0127 C25.1142888,1.42937531 24.7618819,0.919934469 24.2603831,0.596561703 C23.7588843,0.273188937 23.1494198,0.162402958 22.5662,0.2886 L2.0093,4.7573 C0.796836342,5.02293546 0.0261024856,6.21740321 0.2837,7.4316 L2.76,18.9873 C2.98329928,20.0211104 3.89615317,20.7600735 4.9538,20.7632 C5.11519126,20.7632 5.27611051,20.7457681 5.4338,20.7114 L25.9904,16.2427 C27.2029855,15.977203 27.9738816,14.7826916 27.7163,13.5684 L27.7168,13.5684 Z M2.634,8.8524 L2.2397,7.0124 C2.21232822,6.87591575 2.29846546,6.7424119 2.4341,6.7111 L22.9907,2.2427 C23.0547057,2.22905511 23.1215102,2.24150897 23.1763,2.2773 C23.2314315,2.31215766 23.2701574,2.36779457 23.2837,2.4316 L23.6793,4.2773 L2.634,8.8524 Z M25.5659,14.2886 L5.0093,18.7573 C4.87640749,18.7850637 4.74586702,18.700903 4.7163,18.5684 L3.0531,10.8078 L24.0983,6.2327 L25.7603,13.9873 C25.7876718,14.1237842 25.7015345,14.2572881 25.5659,14.2886 L25.5659,14.2886 Z M19.6659,11.4141 L20.1093,13.3641 L22.8676,12.7371 L22.4242,10.7871 L19.6659,11.4141 Z" transform="translate(2 4)"/>
  </g>
</svg>
