<svg xmlns="http://www.w3.org/2000/svg" viewBox="0 0 32 32">
  <g fill="none" fill-rule="evenodd">
    <path fill="currentColor" d="M21.4688,0 L6.5312,0 L0.709,6.9873 L14,23.6006 L27.291,6.9873 L21.4688,0 Z M21.3807,3.0192 L23.865,6 L20.387,6 L21.3807,3.0192 Z M19.6129,2 L18.28,6 L18.2757,6 L14.4257,2 L19.6129,2 Z M15.4994,6 L12.5006,6 L14,4.4419 L15.4994,6 Z M13.5747,2 L9.7247,6 L9.7204,6 L8.3871,2 L13.5747,2 Z M6.6193,3.0192 L7.613,6 L4.135,6 L6.6193,3.0192 Z M4.0808,8 L8.28,8 L11.2793,16.998 L4.0808,8 Z M10.3871,8 L17.6129,8 L14,18.8379 L10.3871,8 Z M19.72,8 L23.9188,8 L16.7207,16.998 L19.72,8 Z" transform="translate(2 5)"/>
  </g>
</svg>
