<svg viewBox="0 0 64 64" fill="none" xmlns="http://www.w3.org/2000/svg"><path fill-rule="evenodd" clip-rule="evenodd" d="M43.23 18H20.77L9.22 27.727 32 56.2l22.78-28.474L43.23 18zm-5.138 8H25.908l-1.212-4h14.608l-1.212 4zm-1.212 4L32 46.104 27.12 30h9.76zm-15.152-4H17.48l3.384-2.85.864 2.85zm1.212 4l4.134 13.641L16.161 30h6.78zm18.12 0h6.78L36.926 43.642 41.06 30zm1.212-4l.864-2.85L46.52 26h-4.248zM34 12h-4V4h4v8zm-15.414 3.414l-6-6 2.828-2.828 6 6-2.828 2.828zm26.828 0l-2.828-2.828 6-6 2.828 2.828-6 6z" fill="#F9423A"/></svg>