<svg xmlns="http://www.w3.org/2000/svg" xmlns:xlink="http://www.w3.org/1999/xlink" viewBox="0 0 797 337">
  <defs>
    <polygon id="discover-teaser-a" points=".716 .272 29.444 .272 29.444 29 .716 29"/>
  </defs>
  <g fill="none" fill-rule="evenodd" transform="translate(0 9)">
    <path stroke="#321337" stroke-width="3.931" d="M538.3483 202.6518C542.4483 197.3598 546.4183 190.1848 548.3193 182.9758L610.0383 182.1998C655.9083 182.1998 726.8453 53.5648 795.1823 182.1998M576.7545 182.1801C579.8545 166.3701 581.4805 139.6671 580.4595 126.1381M558.0123 130.3261C562.9573 138.6031 569.4263 162.7191 567.6813 181.5891"/>
    <path stroke="#321337" stroke-width="3.931" d="M489.2917,127.0668 C491.3607,118.5148 506.8717,68.8868 550.7197,56.7788 C557.3387,54.9518 568.9407,53.0998 584.9727,57.6488 C601.8427,56.6538 618.1477,27.3768 617.2047,0.0158 L619.0927,3.8228 C619.5517,9.3258 626.6777,49.3688 600.9817,71.8388 C623.3727,99.2428 614.9807,153.6588 602.0927,182.1558"/>
    <path stroke="#321337" stroke-width="3.931" d="M0.0075,185.2255 L411.6495,183.6645 C437.6665,235.1735 479.4925,245.2445 511.2735,223.9255 C532.5825,207.3215 532.6505,183.1715 535.7015,155.8695 C538.1455,134.0155 570.3455,123.9525 584.6485,124.9455 C591.1805,124.9455 599.1215,156.1995 591.5725,181.6265"/>
    <path stroke="#321337" stroke-width="3.931" d="M490.3961 136.8066C490.3961 136.8066 493.6361 178.1906 513.3571 162.9516 522.9631 155.5286 508.3031 127.9926 488.9071 126.2106 476.7961 125.0986 463.6041 135.1076 464.6681 151.4936 464.9601 155.9926 467.8451 160.7036 467.0431 166.7926L463.3781 201.7246C504.8951 211.8746 505.9791 170.5636 514.2871 171.0566 516.382186 184.2736 515.2091 200.9476 509.3101 216.8186M464.6188 192.3906C468.9888 192.7876 472.6998 197.4856 473.0978 202.6506M489.4586 233.0654C494.1636 228.3504 504.3646 200.1794 504.3646 200.1794M487.6881 201.371C487.6881 207.728 487.2811 217.605 478.8491 233.975"/>
    <polygon fill="#321337" points="693.643 103.731 689.929 101.325 692.335 97.611 696.049 100.017"/>
    <polygon fill="#321337" points="625.083 160.941 621.369 158.535 623.774 154.821 627.488 157.227"/>
    <polygon fill="#321337" points="655.613 102.13 652.793 98.72 656.203 95.9 659.023 99.31"/>
    <polygon fill="#321337" points="668.108 128.386 667.841 123.969 672.258 123.702 672.525 128.119"/>
    <polygon fill="#321337" points="642.448 137.198 641.715 132.834 646.079 132.1 646.812 136.464"/>
    <polygon fill="#F9423A" points="471.136 280.567 451.416 274.469 457.514 254.749 477.234 260.847"/>
    <polygon fill="#F9423A" points="507.673 302.813 487.497 307.169 483.14 286.993 503.317 282.636"/>
    <g transform="translate(438 298.909)">
      <mask id="discover-teaser-b" fill="#fff">
        <use xlink:href="#discover-teaser-a"/>
      </mask>
      <polygon fill="#F9423A" points="12.489 29 .716 12.045 17.671 .272 29.444 17.227" mask="url(#discover-teaser-b)"/>
    </g>
  </g>
</svg>
