<svg xmlns="http://www.w3.org/2000/svg" viewBox="0 0 32 32">
  <g fill="none" fill-rule="evenodd">
    <path fill="currentColor" d="M3.94430453e-31,22 L9,22 L9,13 L3.94430453e-31,13 L3.94430453e-31,22 Z M2,15 L7,15 L7,20 L2,20 L2,15 Z M4.5,0 C2.01471863,0 -1.77635684e-15,2.01471863 -1.77635684e-15,4.5 C-1.77635684e-15,6.98528137 2.01471863,9 4.5,9 C6.98528137,9 9,6.98528137 9,4.5 C8.99724444,2.01586091 6.98413909,0.00275556448 4.5,0 Z M4.5,7 C3.11928813,7 2,5.88071187 2,4.5 C2,3.11928813 3.11928813,2 4.5,2 C5.88071187,2 7,3.11928813 7,4.5 C6.99873198,5.8801863 5.8801863,6.99873198 4.5,7 L4.5,7 Z M20.293,13.293 L17.5,16.0859 L14.707,13.293 L13.293,14.707 L16.0859,17.5 L13.293,20.293 L14.707,21.707 L17.5,18.9141 L20.293,21.707 L21.707,20.293 L18.9141,17.5 L21.707,14.707 L20.293,13.293 Z M17.5,0.0156 L12.2588,9 L22.7412,9 L17.5,0.0156 Z M17.5,3.9844 L19.2588,7 L15.7412,7 L17.5,3.9844 Z" transform="translate(5 5)"/>
  </g>
</svg>
