<?xml version="1.0" encoding="utf-8"?>
<!-- Generator: Adobe Illustrator 25.2.1, SVG Export Plug-In . SVG Version: 6.00 Build 0)  -->
<svg version="1.1" id="Ebene_1" xmlns="http://www.w3.org/2000/svg" xmlns:xlink="http://www.w3.org/1999/xlink" x="0px" y="0px"
	 viewBox="0 0 67 99" style="enable-background:new 0 0 67 99;" xml:space="preserve">
<style type="text/css">
	.st0{fill:#FFFFFF;stroke-miterlimit:10;}
	.st1{fill:#E9453F; stroke-width: 1}
</style>
<path vector-effect="non-scaling-stroke" class="st0" d="M23.7,86.8v8.2c0,1.1,1.2,2,2.7,2h14.1c1.5,0,2.7-0.9,2.7-2v-8.2L23.7,86.8
	L23.7,86.8z"/>
<path vector-effect="non-scaling-stroke" class="st0" d="M33.5,2C50.9,2,65,16,65,33.3c0,23.1-24,47-24,47H26c0,0-24-21.9-24-47
	C2,16,16.1,2,33.5,2z"/>
<path vector-effect="non-scaling-stroke" class="st0" d="M40.6,86.9v-6.6 M26.4,86.7v-6.4"/>
<g>
	<path class="st1" vector-effect="non-scaling-stroke" d="M64,33.3C64,16.6,50.3,3,33.5,3S3,16.6,3,33.3c0,22.9,20.8,43.5,23.4,46h14c0.1,0,0.1-0.1,0.2-0.1
		c1.4-1.4,6.5-6.9,11.6-14.3C57.6,56.9,64,45,64,33.3z M4.3,31.4c0-6.8,2.2-12.8,6.8-18c0,0,0.1-0.1,0.1-0.1c0.7,0.5,1.3,1,2,1.4
		c1.5,1,1.8,1,3.2-0.2c1.6-1.5,3.2-3,4.8-4.5c1-0.9,1.9-1.8,2.9-2.6c1-0.8,1.5-0.9,2.5,0c1.1,0.9,2.2,1.9,3.3,2.9
		c0.8,0.7,1.5,1.4,2.3,2.1c0.8,0.7,1.2,0.7,2.1,0.1c1.4-1,2.7-2.1,4.1-3.2c0.9-0.7,1.7-1.4,2.6-2c1.1-0.8,1.5-0.8,2.6,0.1
		c1.1,0.9,2.1,1.9,3.1,2.9c1.3,1.3,2.6,2.6,3.9,3.9c0.3,0.3,0.6,0.5,0.9,0.8c0.6,0.5,0.9,0.6,1.7,0.1c0.7-0.5,1.4-1,2.1-1.5
		c0.2-0.1,0.3-0.2,0.4-0.4c1.2,1.3,2.3,2.7,3.2,4.3c1.8,3,3,6.3,3.5,9.8c0,0,0,0.1,0,0.1c0.2,0.7,0,1.3-0.6,1.7
		c-0.5,0.5-1,1-1.6,1.4c-0.5,0.4-0.8,0.4-1.2,0c-0.9-0.9-1.8-1.8-2.7-2.8c-1.3-1.4-2.6-2.9-4-4.3c-0.5-0.5-1-0.9-1.6-1.3
		c-0.6-0.4-1.3-0.4-1.8,0c-0.7,0.5-1.3,1.1-1.8,1.7c-1.1,1.3-2.2,2.6-3.4,3.9c-0.3,0.3-0.6,0.6-1,0.9c-0.5,0.4-1.1,0.5-1.6,0.1
		c-1-0.6-1.9-1.2-2.8-1.9c-2.1-1.6-4.2-3.3-6.2-5c-0.4-0.3-0.8-0.5-1.2-0.7c-0.4-0.2-0.9-0.2-1.3,0.1c-0.5,0.4-1,0.7-1.5,1.1
		c-1.5,1.6-2.9,3.2-4.4,4.8c-0.7,0.8-1.4,1.5-2.1,2.3c-0.5,0.5-0.7,0.5-1.3,0.1c-0.8-0.5-1.5-1.2-2.3-1.8c-1.3-1.1-2.5-2.2-3.8-3.3
		c-0.2-0.2-0.5-0.4-0.8-0.5c-0.5-0.3-0.9-0.3-1.2,0.2c-0.6,0.6-1.1,1.3-1.6,2c-1.1,1.8-2.2,3.6-3.3,5.4c-0.3,0.5-0.7,1-1.1,1.5
		c-0.3,0.4-0.6,0.4-1,0.1C4.7,32.7,4.3,32.2,4.3,31.4z M8.7,51.2c0,0-0.1,0-0.1,0c-0.3-0.9-0.6-1.7-0.9-2.6
		c-0.3-0.9-0.6-1.8-0.8-2.7c0-0.1,0-0.3-0.1-0.4c0-0.1,0-0.1-0.1-0.2c-0.3-1.1-0.6-2.2-0.9-3.3c-0.1-0.3-0.1-0.6-0.2-1
		c7.8-3.4,16-5.2,24.5-5.7c13.3-0.8,25,2,31.5,4.8c-0.1,1.3-2.2,8.6-2.9,10c-0.5-0.2-1-0.3-1.5-0.5c-3.7-1.3-7.5-2.1-11.4-2.7
		c-4.6-0.7-9.3-1-14-0.9c-7.7,0.2-15.2,1.6-22.2,4.7C9.2,51,9,51.1,8.7,51.2z M51.4,65.2c-0.1-0.5-0.2-0.9-0.3-1.4
		c-0.2-0.5-0.5-0.8-1.1-0.8c-0.6,0-0.9,0.4-1.1,0.8c-0.3,0.7-0.3,1.4-0.1,2.1c0.3,0.7,0.7,1,1.5,1c-1.1,1.6-2.2,3-3.5,4.5
		c-0.3-0.6-0.6-1.1-0.9-1.6c-0.4-0.6-0.7-1.2-1.1-1.8c-0.7-0.9-1-1-2-0.4c-1.1,0.7-2.2,1.6-3.3,2.3c-1.3,0.9-2.5,1.8-3.8,2.6
		c-1.8,1.1-2.6,1-4.2-0.2c-1.4-1-2.6-2.1-4-3.2c-0.5-0.4-0.9-0.7-1.5-0.9c-0.8-0.4-1.4-0.2-1.5,0.7c-0.2,0.7-0.2,1.5-0.3,2.3
		C24,72,24,72.9,24,73.7c0,0.1,0,0.2-0.1,0.3c-0.2,0.4-0.4,0.5-0.8,0.2c-1.2-1.1-2.3-2.2-3.4-3.4c-0.5-0.6-1-1.2-1.6-1.9
		c0.2,0,0.3,0,0.4,0c0.8,0,1.5-0.7,1.5-1.7c0-0.9-0.7-1.7-1.5-1.6c-0.7,0-1.3,0.7-1.4,1.4c0,0.1,0,0.3-0.1,0.4
		c-0.4-0.5-0.8-1-1.1-1.6c-1.2-2-2.4-4-3.6-6.1c-0.1-0.2-0.1-0.5,0-0.7c0.1-0.4,0.3-0.8,0.5-1.1c0.2-0.3,0.5-0.4,0.9-0.3
		c0.6,0.2,1.1,0.4,1.6,0.6c1.6,0.8,3.1,1.7,4.6,2.6c0.4,0.2,0.8,0.4,1.2,0.6c0.6,0.3,1.2,0.2,1.7-0.2c0.9-0.7,1.9-1.4,2.8-2.1
		c2-1.6,4-3.3,6-4.9c0.3-0.2,0.6-0.4,0.9-0.6c0.5-0.4,1.1-0.4,1.6,0c0.8,0.6,1.7,1.2,2.5,1.9c1.8,1.6,3.6,3.2,5.5,4.7
		c0.3,0.3,0.7,0.5,1.1,0.8c0.5,0.3,1.1,0.4,1.6,0c0.8-0.6,1.7-1.2,2.5-1.8c1.4-1.2,2.8-2.4,4.2-3.6c0.3-0.3,0.7-0.5,1.1-0.6
		c0.3-0.2,0.6-0.1,0.9,0.1c0.9,0.6,1.3,1.5,1.8,2.4c0,0.1,0,0.2-0.1,0.3c-1.2,2.5-2.5,4.9-4,7.2C51.4,65.1,51.4,65.1,51.4,65.2z"/>
	<path class="st1" vector-effect="non-scaling-stroke" d="M6.7,45.4c0-0.3,0-0.7,0-1C6.9,43.6,7.6,43,8.3,43c0.8,0,1.5,0.7,1.5,1.6c0,0.4-0.1,0.9-0.3,1.3
		C9,47,7.6,47,7,45.9c-0.1-0.1-0.1-0.2-0.2-0.3C6.8,45.6,6.7,45.5,6.7,45.4z"/>
	<path class="st1" vector-effect="non-scaling-stroke" d="M39.6,16.3c0-0.6,0.2-1.1,0.5-1.6c0.7-0.9,2-0.9,2.8-0.1c0.8,0.9,0.8,2.3,0,3.2c-0.5,0.5-1.1,0.8-1.8,0.6
		c-0.8-0.2-1.3-0.8-1.5-1.6C39.6,16.6,39.6,16.4,39.6,16.3z"/>
	<path class="st1" vector-effect="non-scaling-stroke" d="M54.8,19.1c0-0.6,0.2-1.2,0.6-1.7c0.6-0.7,1.5-0.7,2.2-0.1c0.9,0.9,0.9,2.7,0,3.6c-0.6,0.6-1.5,0.6-2.1,0
		C55,20.5,54.8,19.9,54.8,19.1z"/>
	<path class="st1" vector-effect="non-scaling-stroke" d="M24.8,17.4c0,0.6-0.2,1.2-0.8,1.7c-0.6,0.5-1.4,0.5-2,0c-1-0.9-1-2.7,0-3.6c0.7-0.6,1.7-0.5,2.3,0.3
		C24.6,16.2,24.8,16.8,24.8,17.4z"/>
	<path class="st1" vector-effect="non-scaling-stroke" d="M7.1,20.7c0.1-0.7,0.2-1.2,0.5-1.6c0.4-0.4,0.9-0.4,1.3,0c0.7,0.6,0.7,2,0,2.7c-0.4,0.4-1,0.4-1.3,0
		C7.4,21.4,7.2,20.9,7.1,20.7z"/>
	<path class="st1" vector-effect="non-scaling-stroke" d="M35.9,42.1c-1.1,0-2.1-0.9-2-2c0-1.1,0.9-2,2-2c1.1,0,2,0.9,2,2C37.9,41.3,37,42.1,35.9,42.1z"/>
	<path class="st1" vector-effect="non-scaling-stroke" d="M25.2,42.6c-0.9,0-1.6-0.8-1.7-1.7c0-1,0.8-1.8,1.7-1.8c0.9,0,1.7,0.8,1.6,1.8C26.9,41.8,26.1,42.6,25.2,42.6z
		"/>
	<path class="st1" vector-effect="non-scaling-stroke" d="M49.8,41.5c0,1-0.7,1.7-1.6,1.7c-0.9,0-1.6-0.8-1.6-1.9c0-0.9,0.8-1.7,1.7-1.6C49.2,39.7,49.8,40.5,49.8,41.5z
		"/>
	<path class="st1" vector-effect="non-scaling-stroke" d="M15.3,42.6c0-0.9,0.7-1.5,1.6-1.6c0.9,0,1.6,0.7,1.6,1.5c0,0.8-0.7,1.5-1.6,1.5C16,44.1,15.3,43.4,15.3,42.6z"
		/>
	<path class="st1" vector-effect="non-scaling-stroke" d="M57.5,42.3c0.8,0,1.5,0.7,1.5,1.5c0,0.8-0.7,1.5-1.5,1.5c-0.8,0-1.5-0.7-1.5-1.5
		C56.1,42.9,56.7,42.3,57.5,42.3z"/>
	<path class="st1" vector-effect="non-scaling-stroke" d="M32.2,65.3c0-0.7,0.2-1.4,0.8-1.9c0.6-0.5,1.3-0.5,1.9,0c1,0.9,1.1,2.9,0,3.8c-0.6,0.6-1.5,0.6-2.1-0.1
		C32.4,66.6,32.2,66,32.2,65.3z"/>
</g>
</svg>
