<svg xmlns="http://www.w3.org/2000/svg" viewBox="0 0 32 32">
  <g fill="none" fill-rule="evenodd">
    <path fill="currentColor" d="M27.4038,10.9893 L26.6968,10.2822 C23.6206,7.209 19.4082,3 14,3 C12.3218446,3.01757539 10.6674476,3.39876357 9.1508,4.1173 L5.7432,0.3311 L4.2568,1.6689 L7.34,5.0947 C5.13488869,6.562331 3.10589016,8.27870875 1.293,10.21 L0.5859,10.917 L1.4272,11.7593 C4.48,14.8145 8.66,19 14,19 C15.676661,18.9835635 17.3292415,18.5990004 18.8409,17.8735 L22.2568,21.6689 L23.7432,20.3311 L20.6439,16.8873 C22.8517349,15.3918802 24.885554,13.6544333 26.7075,11.7073 L27.4038,10.9893 Z M14,17 C9.7759,17 6.2754,13.7642 3.416,10.9185 C4.99338417,9.26959187 6.76612415,7.81936974 8.6949,6.6 L10.3281,8.4147 C9.10105396,10.123015 9.22937317,12.4553138 10.6364231,14.0187052 C12.0434729,15.5820967 14.3494155,15.9545378 16.1771,14.9136 L17.4216,16.2964 C16.3366955,16.7480379 15.1750843,16.9869056 14,17 Z M14.7811,13.3626 C14.5298522,13.4502443 14.2660747,13.4966443 14,13.5 C12.6199734,13.4983469 11.5016531,12.3800266 11.5,11 C11.5011557,10.6442777 11.5789192,10.2929777 11.728,9.97 L14.7811,13.3626 Z M13.2189,8.6374 C13.4701478,8.54975565 13.7339253,8.50335567 14,8.5 C15.3800266,8.50165306 16.4983469,9.61997342 16.5,11 C16.4988443,11.3557223 16.4210808,11.7070223 16.272,12.03 L13.2189,8.6374 Z M19.2789,15.3713 L17.6714,13.5852 C18.898446,11.876885 18.7701268,9.54458621 17.3630769,7.98119477 C15.9560271,6.41780334 13.6500845,6.04536222 11.8224,7.0863 L10.5635,5.687 C11.6557012,5.2442517 12.8215246,5.0111888 14,5 C18.2251,5 21.7153,8.16 24.5835,11 C22.9953317,12.6625643 21.2147514,14.1300048 19.2794,15.3713 L19.2789,15.3713 Z" transform="translate(2 5)"/>
  </g>
</svg>
