<svg xmlns="http://www.w3.org/2000/svg" viewBox="0 0 32 32">
  <g fill="none" fill-rule="evenodd">
    <path fill="currentColor" d="M9.5,8 C9.5,10.4852814 11.5147186,12.5 14,12.5 C16.4852814,12.5 18.5,10.4852814 18.5,8 C18.5,5.51471863 16.4852814,3.5 14,3.5 C11.5158609,3.50275556 9.50275556,5.51586091 9.5,8 Z M16.5,8 C16.5,9.38071187 15.3807119,10.5 14,10.5 C12.6192881,10.5 11.5,9.38071187 11.5,8 C11.5,6.61928813 12.6192881,5.5 14,5.5 C15.3800266,5.50165306 16.4983469,6.61997342 16.5,8 Z M26.6968,7.2822 C23.6206,4.209 19.4082,0 14,0 C8.5918,0 4.3794,4.209 1.293,7.2925 L0.5859,8 L1.2925,8.7075 C4.3682,11.7847 8.58,16 14,16 C19.42,16 23.6318,11.7847 26.7075,8.707 L27.4038,7.9893 L26.6968,7.2822 Z M14,14 C9.7812,14 6.1689,10.7271 3.4165,8 C6.2778,5.166 9.7705,2 14,2 C18.2251,2 21.7153,5.16 24.5835,8 C21.8311,10.7275 18.2188,14 14,14 Z" transform="translate(2 8)"/>
  </g>
</svg>
