<svg xmlns="http://www.w3.org/2000/svg" viewBox="0 0 32 32">
  <g fill="none" fill-rule="evenodd">
    <path fill="currentColor" d="M10,4.4141 L10,9 L12,9 L12,4.4141 L14.293,6.707 L15.707,5.293 L11,0.5859 L6.293,5.293 L7.707,6.707 L10,4.4141 Z M17.707,7.293 L16.293,8.707 L18.5859,11 L6,11 C2.187,11 0,12.8223 0,16 C0,18.2886 1.041,21.0171 6,21.0171 C9.7114,21.0171 10,24.8311 10,26 L12,26 L12,15 L10,15 L10,20.5225 C8.92358529,19.5028506 7.48159068,18.9601559 6,19.0171 C2.4844,19.0171 2,17.5671 2,16 C2,15.2578 2,13 6,13 L18.5859,13 L16.293,15.293 L17.707,16.707 L22.4141,12 L17.707,7.293 Z" transform="translate(5 2)"/>
  </g>
</svg>
