<svg xmlns="http://www.w3.org/2000/svg" viewBox="0 0 32 32">
  <g fill="none" fill-rule="evenodd">
    <path fill="currentColor" d="M15.18,6 L15.9859,1.1641 L14.0133,0.8359 L13.153,6 L7.93,6 L8.4931,14.3131 C5.28149079,13.2774772 1.81150123,14.8716868 0.50511152,17.9830039 C-0.801278192,21.0943211 0.490448264,24.6878952 3.47869281,26.2554866 C6.46693736,27.823078 10.1577845,26.8432926 11.9751,24 L17.94,24 L19.065,6 L15.18,6 Z M6.5,25 C4.01471863,25 2,22.9852814 2,20.5 C2,18.0147186 4.01471863,16 6.5,16 C8.98528137,16 11,18.0147186 11,20.5 C10.9972444,22.9841391 8.98413909,24.9972444 6.5,25 Z M16.0605,22 L12.825,22 C13.4026571,19.5619455 12.5267121,17.009016 10.5739,15.4392 L10.07,8 L16.9357,8 L16.0605,22 Z" transform="translate(5 2)"/>
  </g>
</svg>
