<svg viewBox="0 0 339 289" fill="none" xmlns="http://www.w3.org/2000/svg"><path d="M65.358 84.714l-3.33 9.513-6.183-9.513-5.707-5.708h-10.94l-6.184 5.708v12.842l6.184 10.94-9.513-2.854-6.66 2.854c-.792 2.695-2.948 8.371-5.231 9.513-2.283 1.141.951 6.183 2.854 8.561l53.272 82.287H62.029L42.527 196.49l-17.123-11.415-7.61-2.379-7.135 2.379L4 192.685l51.845 59.456 13.318 15.696 12.367 7.61 17.123 8.086 23.783 2.854 26.16-4.757 15.696-11.415 12.843-14.745 8.086-21.404 10.939 4.756 22.831 2.379 24.734-4.757 24.258-10.464 18.55-19.026L336 148.926l-4.281-6.659c-2.537-.952-7.991-2.854-9.513-2.854h-5.707l-18.075 11.891-24.733 10.464h-5.708l48.516-77.054 3.329-9.038V69.97l-3.329-5.232-7.135-4.281h-3.805l-7.135 4.28 9.037-15.22v-5.708l-5.232-6.659c-2.061-1.11-6.754-3.33-9.037-3.33-2.283 0-6.659 2.22-8.562 3.33l-8.561 12.367v-5.708l-4.281-6.659-8.562-3.33-9.037 3.33-10.464 17.123-4.757 4.281-1.902-9.037-3.805-5.708h-10.464c-1.142 0-4.915 3.805-6.659 5.708l-48.992 77.054-10.94 18.55-28.063-45.186c-1.902-2.854-6.469-9.322-9.513-12.367-3.805-3.805-5.232 0-8.086 0-2.283 0-5.707 2.537-7.134 3.806l-2.378 6.183-2.379 5.232L84.384 81.86l-4.757-2.854H73.92l-8.562 5.708z" fill="none"/><path d="M129.301 55.847l-28.538-20.512M154.719 40.687L143.125 1M181.92 42.917l15.607-32.552" stroke="currentColor" stroke-width="5" stroke-miterlimit="10"/><path d="M92.738 188.286l-57.97-89.183C25.405 83.94 46.364 69.226 57.066 85.725l57.969 89.183" stroke="currentColor" stroke-width="5" stroke-miterlimit="7"/><path d="M173.002 170.449c13.378 22.295 13.378 33.443 13.378 49.05 0 35.674-26.755 66.888-62.428 66.888-24.526 0-49.051-13.378-57.97-22.296-8.918-8.918-37.01-42.808-61.982-71.347 10.702-14.715 17.837-9.81 25.417-4.459 0 0 32.106 22.296 45.484 22.296l-53.51-84.724c-9.364-15.161 11.594-29.43 22.296-12.932" stroke="currentColor" stroke-width="5" stroke-miterlimit="7"/><path d="M65.983 99.547c-9.365-15.161 11.593-29.876 22.295-13.823l49.051 75.806" stroke="currentColor" stroke-width="5" stroke-miterlimit="7"/><path d="M102.993 108.466c-9.365-15.161 10.256-30.322 20.958-13.823l49.05 75.805M247.025 143.694l57.97-89.183c9.364-15.162-11.594-29.877-22.296-13.378l-57.97 89.184M266.645 162.868l51.28-81.602c4.459-7.135 2.23-13.824-2.676-17.837-5.351-4.013-12.93-4.757-18.727 4.162" stroke="currentColor" stroke-width="5" stroke-miterlimit="7"/><path d="M185.486 233.323c8.919 5.351 19.175 8.472 30.323 8.472 24.525 0 49.051-13.377 57.969-22.296 8.918-8.918 37.011-42.808 61.982-71.346-10.702-14.716-17.836-9.81-25.417-4.459 0 0-29.876 19.174-43.254 19.174-12.931-.446-47.267-7.135-63.32 21.404M166.758 125.857c-4.905 8.026-7.58 14.269-9.81 20.066M273.779 54.956c4.459-7.58 1.784-14.716-3.567-18.283-5.351-3.567-13.378-3.567-18.729 4.905l-49.05 75.806M236.769 63.874c4.459-7.135 2.229-14.715-2.676-18.282-4.905-4.014-12.931-3.568-18.282 4.905l-49.051 75.805" stroke="currentColor" stroke-width="5" stroke-miterlimit="7"/></svg>