<svg xmlns="http://www.w3.org/2000/svg" viewBox="0 0 32 32">
  <g fill="none" fill-rule="evenodd">
    <path fill="currentColor" d="M16.9761,8 C14.9919398,7.94457252 13.1160059,8.90286984 11.998,10.543 C10.8722364,8.90125468 8.98984363,7.94348662 7,8 C5.38696027,7.92530509 3.8170514,8.53342424 2.67523782,9.67523782 C1.53342424,10.8170514 0.925305085,12.3869603 1,14 C1,21.5312 11.1221,26.6792 11.5527,26.8945 L12,27.1182 L12.4473,26.8945 C12.8779,26.6792 23,21.5312 23,14 C23.071645,12.383595 22.4591925,10.8117623 21.3128275,9.6699455 C20.1664625,8.52812874 18.5922074,7.92192968 16.9761,8 Z M12,24.8652 C10.1235,23.8208 3,19.4937 3,14 C2.92462328,12.9177809 3.32178162,11.8559783 4.08887997,11.08888 C4.85597832,10.3217816 5.91778094,9.92462328 7,10 C8.07534832,9.95024511 9.12192955,10.3556713 9.88312911,11.1168709 C10.6443287,11.8780704 11.0497549,12.9246517 11,14 L13,14 C12.9343017,12.9245518 13.3312175,11.8722705 14.0908056,11.1081166 C14.8503936,10.3439627 15.9002774,9.94074786 16.9761,10 C18.0613109,9.92122764 19.1274348,10.3164207 19.899102,11.0835045 C20.6707691,11.8505883 21.0723062,12.9143391 21,14 C21,19.4937 13.8765,23.8208 12,24.8652 Z M13,0 L11,0 L11,4 L13,4 L13,0 Z M6.707,4.293 L3.707,1.293 L2.293,2.707 L5.293,5.707 L6.707,4.293 Z M21.707,2.707 L20.293,1.293 L17.293,4.293 L18.707,5.707 L21.707,2.707 Z" transform="translate(4 2)"/>
  </g>
</svg>
