<svg viewBox="0 0 471 195" xmlns="http://www.w3.org/2000/svg"><g fill="none" fill-rule="evenodd"><path d="M43.99 113c-4.26 7.851-19.064 45.628-.6 61.043 19.924-15.902 4.97-52.39.6-61.043z" stroke="#321337" stroke-width="6"/><path d="M43.514 161.475v27.777"/><path stroke="#321337" stroke-width="6" d="M43.739 160.755v29.47"/><g stroke="#2B0035" stroke-width="6"><path d="M88.555 145.09h74.394v-18.508H88.555zM118.103 126.582v-10.427h14.687v10.427M88.556 192.009v-46.92M103.425 192.009v-46.92M132.923 192.009v-46.92M148 192.009v-46.92M118.502 191.936v-46.92M162.749 192.009v-46.92"/></g><path stroke="#321337" stroke-width="6" d="M.426 191.374h470.148"/><g><g stroke="#321337" stroke-width="6"><path fill="#FBFAF9" d="M201 18.95h156.485l-.25 40.848h38.782v130.268H201z"/><path d="M266.929 143.699v46.367M233.688 143.699v46.367M299.063 143.699v46.367M332.304 143.699v46.367M365.546 143.699v46.367M201 144.25h195.017M201 59.798h195.017M201 103.957h195.017"/></g><path fill="#F9423A" d="M375.613.768l42.841 9.848-9.929 42.822-42.841-9.848z"/></g></g></svg>