<svg viewBox="0 0 457 327" xmlns="http://www.w3.org/2000/svg" xmlns:xlink="http://www.w3.org/1999/xlink"><defs><filter x="-11.5%" y="-17%" width="123%" height="150.6%" filterUnits="objectBoundingBox" id="a"><feOffset dy="13" in="SourceAlpha" result="shadowOffsetOuter1"/><feGaussianBlur stdDeviation="11" in="shadowOffsetOuter1" result="shadowBlurOuter1"/><feColorMatrix values="0 0 0 0 0.196078431 0 0 0 0 0.0745098039 0 0 0 0 0.215686275 0 0 0 0.1 0" in="shadowBlurOuter1"/></filter><rect id="b" x="0" y="0" width="344" height="156" rx="7"/></defs><g fill="none" fill-rule="evenodd"><g stroke="#321337"><path d="M53.613 77.584c16.702 14.7 47.49 48.245 63.87 99.95-8.908 20.987-64.376 41.002-83.528 27.778-11.092-40.44-16.389-81.75-5.803-119.47l19.088 16.852 6.627-25.41" stroke-width="5.423"/><g stroke-width="6"><path d="M4.19 48.004c4.083 22.09 18.682 37.877 32.61 35.26C50.727 80.649 58.708 60.62 54.626 38.53 50.543 16.44 35.942.654 22.016 3.271 8.088 5.887.106 25.915 4.19 48.004z"/><path d="M48.327 26.841c-10.565 1.305-22.98-3.045-22.98-3.045L3.494 51.442"/></g><path stroke-width="5.423" d="M127.5 326l-2.618-61.842-11.96-81.11"/><path d="M49.748 77.406c49.027-4.648 53.983-17.332 90.892-72.057M41.5 207l10.491 119.123M108 326l-8.524-61.554-18.079-26.933-5.598 88.61" stroke-width="6"/></g><path d="M28.5 90.118c16.41 57.037 24.197 68.297 79.62 55.602" stroke="#321337" stroke-width="6"/><g transform="translate(91 10)"><use fill="#000" filter="url(#a)" xlink:href="#b"/><use fill="#FFF" xlink:href="#b"/></g><text font-family="Helvetica" font-size="38" fill="#321337" transform="translate(91 10)"><tspan x="17" y="113">BLX01 3000</tspan></text><text font-family="Helvetica" font-size="18" fill="#321337" transform="translate(91 10)"><tspan x="17" y="126">EUR 3,000</tspan></text><text font-family="Helvetica" font-size="14" fill="#321337" transform="translate(91 10)"><tspan x="17" y="54">My Shares</tspan></text></g></svg>