<svg viewBox="0 0 440 392" xmlns="http://www.w3.org/2000/svg" xmlns:xlink="http://www.w3.org/1999/xlink"><defs><filter x="-13.2%" y="-16.9%" width="126.3%" height="151%" filterUnits="objectBoundingBox" id="a"><feOffset dy="17" in="SourceAlpha" result="shadowOffsetOuter1"/><feGaussianBlur stdDeviation="14" in="shadowOffsetOuter1" result="shadowBlurOuter1"/><feColorMatrix values="0 0 0 0 0.196078431 0 0 0 0 0.0745098039 0 0 0 0 0.215686275 0 0 0 0.1 0" in="shadowBlurOuter1"/></filter><rect id="b" x="0" y="0" width="384" height="198" rx="8.4"/></defs><g fill="none" fill-rule="evenodd"><g transform="translate(28 11)"><use fill="#000" filter="url(#a)" xlink:href="#b"/><use fill="#FFF" xlink:href="#b"/></g><path fill="#F9423A" d="M58 86h14v14H58zM76 84h14v14H76zM94 86h14v14H94zM115.271 80.484l12.245 6.787-6.787 12.245-12.245-6.787zM103.271 63.484l12.245 6.787-6.787 12.245-12.245-6.787zM81.901 66.514l13.585 3.387-3.387 13.585-13.585-3.387zM132 86h14v14h-14zM150 84h14v14h-14zM128 69h14v14h-14z"/><path fill="#F9423A" d="M128 69h14v14h-14zM118.438 52.438l12.124 7-7 12.124-12.124-7zM145.965 51.155l10.88 8.81-8.81 10.88-10.88-8.81zM168 86h14v14h-14zM189.271 80.484l12.245 6.787-6.787 12.245-12.245-6.787zM177.271 63.484l12.245 6.787-6.787 12.245-12.245-6.787zM155.901 66.514l13.585 3.387-3.387 13.585-13.585-3.387z"/><text font-family="Helvetica" font-size="38" fill="#321337" transform="translate(28 11)"><tspan x="20" y="155">BLX01 3000</tspan></text><text font-family="Helvetica" font-size="18" fill="#321337" transform="translate(28 11)"><tspan x="20" y="168">EUR 3,000</tspan></text><g transform="translate(48 100)"><rect fill="#D8D8D8" x="3" y="4" width="341" height="4" rx="1.68"/><rect fill="#F9423A" y="4" width="222" height="4" rx="2"/><circle fill="#F9423A" cx="223.5" cy="6.5" r="6.5"/></g><g stroke="#321337"><path d="M375.24 162.452c34.795 58.376 34.795 174.165 34.795 174.165-27.406 19.204-56.242 19.204-86.508 0 6.642-84.26 20.13-157.733 31.065-174.165" stroke-width="6" fill="#FFF"/><path d="M341.132 128.94c1.233 20.383 12.628 36.243 25.453 35.426 12.823-.818 22.22-18.005 20.985-38.387-1.233-20.382-12.628-36.242-25.451-35.425-12.825.818-22.222 18.005-20.987 38.386z" stroke-width="6.201" fill="#FFF"/><path stroke-width="6" d="M380.875 351.02l.972 40.824M354.643 351.02l-.025 40.824M348.217 178.27c-52.759 8.833-75.717-65.77-75.717-65.77M370.242 181.29C393.467 245.305 350 285.845 350 285.845M351 97c0 13.854 31.054 7.716 34.034 47.36"/></g></g></svg>