<svg xmlns="http://www.w3.org/2000/svg" viewBox="0 0 32 32">
  <g fill="none" fill-rule="evenodd">
    <path fill="currentColor" d="M22,4 L13,4 L13,6 L22,6 L22,4 Z M3,14 L5,14 C5,12.8174 5.8267,11.5 7.0132,11.5 C8.23486315,11.6724742 9.10783902,12.7709439 9,14 L11,14 C11.0549356,12.1375011 9.94722469,10.436805 8.2215,9.7341 C9.51517575,9.1566011 10.2282135,7.75253616 9.9313016,6.36727617 C9.63438971,4.98201618 8.40853984,3.99352579 6.99182176,3.9969545 C5.57510369,4.00040108 4.35406533,4.99482881 4.06387953,6.38151339 C3.77369372,7.76819796 4.49353692,9.16878604 5.79,9.74 C4.08615689,10.4675975 2.98603237,12.1473575 3,14 L3,14 Z M7,6 C7.55228475,6 8,6.44771525 8,7 C8,7.55228475 7.55228475,8 7,8 C6.44771525,8 6,7.55228475 6,7 C6.00071619,6.44801218 6.44801218,6.00071619 7,6 L7,6 Z M19,14 L22,14 L22,12 L19,12 L19,14 Z M22,8 L13,8 L13,10 L22,10 L22,8 Z M18,12 L13,12 L13,14 L18,14 L18,12 Z M0,0 L0,18 L26,18 L26,0 L0,0 Z M24,16 L2,16 L2,2 L24,2 L24,16 Z" transform="translate(3 7)"/>
  </g>
</svg>
