<svg xmlns="http://www.w3.org/2000/svg" viewBox="0 0 32 32">
  <g fill="none" fill-rule="evenodd">
    <path fill="currentColor" d="M13,0 C5.82029825,0 0,5.82029825 0,13 C0,20.1797017 5.82029825,26 13,26 C20.1797017,26 26,20.1797017 26,13 C25.991734,5.82372494 20.1762751,0.00826601904 13,0 Z M13,24 C6.92486775,24 2,19.0751322 2,13 C2,6.92486775 6.92486775,2 13,2 C19.0751322,2 24,6.92486775 24,13 C23.9931114,19.0722766 19.0722766,23.9931114 13,24 Z M12,20 L14,20 L14,10 L12,10 L12,20 Z M12,8 L14,8 L14,6 L12,6 L12,8 Z" transform="translate(3 3)"/>
  </g>
</svg>
