<svg xmlns="http://www.w3.org/2000/svg" viewBox="0 0 32 32">
  <g fill="none" fill-rule="evenodd">
    <path fill="currentColor" d="M20,20 L2,20 C1.44771525,20 1,19.5522847 1,19 L1,9 C1,8.44771525 1.44771525,8 2,8 L20,8 C20.5522847,8 21,8.44771525 21,9 L21,19 C21,19.5522847 20.5522847,20 20,20 Z M3,18 L19,18 L19,10 L3,10 L3,18 Z M15.707,0.293 L14.293,1.707 L16.5859,4 L1,4 L1,6 L21.4141,6 L15.707,0.293 Z M7.707,26.293 L5.4141,24 L21,24 L21,22 L0.5859,22 L6.293,27.707 L7.707,26.293 Z M15,14 L4,14 L4,16 L15,16 L15,14 Z M18,14 L16,14 L16,16 L18,16 L18,14 Z" transform="translate(5 2)"/>
  </g>
</svg>
