<svg xmlns="http://www.w3.org/2000/svg" viewBox="0 0 32 32">
  <g fill="none" fill-rule="evenodd">
    <path fill="currentColor" d="M8,-1.77635684e-15 C3.60585617,0.0577287678 0.0577287678,3.60585617 -1.77635684e-15,8 C-1.77635684e-15,13.2549 6.8877,23.1548 7.1807,23.5732 L8,24.7437 L8.8193,23.5732 C9.1123,23.1548 16,13.2549 16,8 C15.9422712,3.60585617 12.3941438,0.0577287678 8,-1.77635684e-15 Z M8,21.2139 C5.79,17.8457 2,11.3691 2,8 C2,4.6862915 4.6862915,2 8,2 C11.3137085,2 14,4.6862915 14,8 C14,11.3691 10.21,17.8457 8,21.2139 Z M8,4.5 C6.06700338,4.5 4.5,6.06700338 4.5,8 C4.5,9.93299662 6.06700338,11.5 8,11.5 C9.93299662,11.5 11.5,9.93299662 11.5,8 C11.4976857,6.06796279 9.93203721,4.50231428 8,4.5 L8,4.5 Z M8,9.5 C7.17157288,9.5 6.5,8.82842712 6.5,8 C6.5,7.17157288 7.17157288,6.5 8,6.5 C8.82842712,6.5 9.5,7.17157288 9.5,8 C9.49906315,8.82803876 8.82803876,9.49906315 8,9.5 L8,9.5 Z" transform="translate(8 4)"/>
  </g>
</svg>
