<svg xmlns="http://www.w3.org/2000/svg" viewBox="0 0 32 32">
  <g fill="none" fill-rule="evenodd">
    <path fill="currentColor" d="M19.4951,2.1367 C18.1504,2.9248 15.084,2.9448 13.7695,1.3613 L12.6738,0.0413 L12.0654,1.6458 C11.3890541,3.61281642 9.26349525,4.67741818 7.2832,4.041 L6.36,3.7681 L6.0523,4.6802 C5.21269738,6.72176522 3.20711403,8.03960771 1,8 L0,8 L0,22 L21,22 L21,1.2573 L19.4951,2.1367 Z M19,20 L2,20 L2,17 L19,17 L19,20 Z M19,15 L2,15 L2,9.9355 C4.36864196,9.66090642 6.45545897,8.25074368 7.5938,6.1555 C9.83423267,6.50492951 12.0699293,5.50002072 13.2959,3.5925 C15.0097395,4.61991745 17.0612526,4.92522932 19,4.4414 L19,15 Z" transform="translate(6 4)"/>
  </g>
</svg>
