<svg viewBox="0 0 720 246" fill="none" xmlns="http://www.w3.org/2000/svg"><mask id="a" maskUnits="userSpaceOnUse" x="0" y="0" width="720" height="246"><path vector-effect="non-scaling-stroke" fill="white" d="M0 0h720v246H0z"/></mask><g mask="url(#a)" ><path vector-effect="non-scaling-stroke" d="M144 2.069l59.3 41.167V247.3H84.7V43.236L144 2.069z"/><path vector-effect="non-scaling-stroke" d="M95.741 204.405h15.814v43.223H95.741zM176.637 203.391h15.814v44.236h-15.814zM203.94 67.579h76.486v180.049H203.94zM7.768 67.579h76.486v180.049H7.768zM175.42 123.254h16.267v26.168H175.42zM96.754 123.254h16.267v26.168H96.754zM113.021 85.428v21.286H96.754v-21.28-.006a3.855 3.855 0 01.103-.626 4.643 4.643 0 01.788-1.652c.843-1.126 2.742-2.604 7.243-2.604 4.5 0 6.4 1.478 7.243 2.604.451.603.676 1.204.787 1.652.056.222.082.4.094.513.006.056.008.095.009.113zM155.632 87.06V106.714h-22.823V87.06c0-.76.016-2.248 1.211-3.595 1.186-1.338 3.892-2.919 10.2-2.919 6.309 0 9.015 1.581 10.201 2.919 1.195 1.347 1.211 2.835 1.211 3.595zM155.632 129.768V149.423h-22.823V129.768c0-.759.016-2.247 1.211-3.595 1.186-1.337 3.892-2.919 10.2-2.919 6.309 0 9.015 1.582 10.201 2.919 1.195 1.348 1.211 2.836 1.211 3.595z"/><path vector-effect="non-scaling-stroke" d="M253.123 225.205V247.628h-21.88V225.205c0-.932.019-3.052 1.289-4.937 1.187-1.762 3.742-3.701 9.651-3.701 5.908 0 8.464 1.939 9.65 3.701 1.271 1.885 1.29 4.005 1.29 4.937zM56.95 225.915v21.713H35.069V225.915c0-.901.02-2.934 1.276-4.745 1.179-1.697 3.736-3.589 9.664-3.589 5.929 0 8.486 1.892 9.664 3.589 1.257 1.811 1.277 3.844 1.277 4.745zM165.464 175.895v6.38h-42.489v-6.38c.274-.278.673-.668 1.186-1.136a39.54 39.54 0 014.614-3.607c3.95-2.639 9.355-5.189 15.444-5.189 6.09 0 11.495 2.55 15.445 5.189a39.54 39.54 0 014.614 3.607c.513.468.912.858 1.186 1.136zM191.687 85.428l.001.006v21.28H175.42v-21.28l.001-.006a3.898 3.898 0 01.102-.626 4.653 4.653 0 01.788-1.652c.842-1.126 2.742-2.604 7.243-2.604 4.5 0 6.4 1.478 7.243 2.604.451.603.676 1.204.787 1.652.056.222.082.4.094.513.006.056.008.095.009.113zM234.297 98.569v21.286H218.03v-21.28-.006c.001-.018.003-.057.009-.113.012-.112.038-.29.094-.513a4.631 4.631 0 01.787-1.652c.843-1.126 2.743-2.604 7.243-2.604 4.501 0 6.401 1.478 7.244 2.604.45.603.675 1.205.787 1.652a3.898 3.898 0 01.103.626zM37.633 98.569v21.286H21.366v-21.28-.006a3.835 3.835 0 01.103-.626 4.643 4.643 0 01.787-1.652c.843-1.126 2.743-2.604 7.243-2.604s6.4 1.478 7.244 2.604c.45.603.675 1.205.787 1.652a3.835 3.835 0 01.102.626zM234.297 141.277V162.564H218.03v-21.28-.007c.001-.018.003-.056.009-.112a3.77 3.77 0 01.094-.514 4.635 4.635 0 01.787-1.652c.843-1.126 2.743-2.604 7.243-2.604 4.501 0 6.401 1.478 7.244 2.604a4.67 4.67 0 01.787 1.652 3.895 3.895 0 01.103.626zM37.633 141.277V162.564H21.366v-21.28-.007a3.832 3.832 0 01.103-.626 4.647 4.647 0 01.787-1.652c.843-1.126 2.743-2.604 7.243-2.604s6.4 1.478 7.244 2.604c.45.603.675 1.205.787 1.652a3.832 3.832 0 01.102.626zM234.297 183.986v21.286H218.03v-21.28-.006c.001-.018.003-.057.009-.113.012-.112.038-.291.094-.513a4.62 4.62 0 01.787-1.652c.843-1.127 2.743-2.604 7.243-2.604 4.501 0 6.401 1.477 7.244 2.604.45.602.675 1.204.787 1.652a3.887 3.887 0 01.103.626zM37.633 183.986v21.286H21.366v-21.28-.006a3.824 3.824 0 01.103-.626c.111-.448.336-1.05.787-1.652.843-1.127 2.743-2.604 7.243-2.604s6.4 1.477 7.244 2.604c.45.602.675 1.204.787 1.652a3.824 3.824 0 01.102.626zM267.074 98.569v21.286h-16.267v-21.28-.006a3.898 3.898 0 01.103-.626 4.648 4.648 0 01.787-1.652c.843-1.126 2.743-2.604 7.244-2.604 4.5 0 6.4 1.478 7.243 2.604.451.603.676 1.205.787 1.652.056.222.082.4.094.513.006.056.008.095.009.113zM70.41 98.569v21.286H54.143v-21.28-.006a3.823 3.823 0 01.103-.626 4.64 4.64 0 01.787-1.652c.843-1.126 2.743-2.604 7.243-2.604 4.501 0 6.4 1.478 7.244 2.604a4.64 4.64 0 01.787 1.652 3.823 3.823 0 01.103.626zM267.074 141.277V162.564h-16.267v-21.28-.007l.01-.112c.012-.113.038-.291.093-.514a4.653 4.653 0 01.787-1.652c.843-1.126 2.743-2.604 7.244-2.604 4.5 0 6.4 1.478 7.243 2.604.451.603.676 1.205.787 1.652.056.223.082.401.094.514.006.056.008.094.009.112zM70.41 141.277V162.564H54.143v-21.28-.007l.01-.112a3.82 3.82 0 01.093-.514 4.645 4.645 0 01.787-1.652c.843-1.126 2.743-2.604 7.243-2.604 4.501 0 6.4 1.478 7.244 2.604.45.603.675 1.205.787 1.652a3.82 3.82 0 01.103.626zM267.074 183.986v21.286h-16.267v-21.28-.006a3.887 3.887 0 01.103-.626c.112-.448.336-1.05.787-1.652.843-1.127 2.743-2.604 7.244-2.604 4.5 0 6.4 1.477 7.243 2.604a4.62 4.62 0 01.787 1.652c.056.222.082.401.094.513.006.056.008.095.009.113zM70.41 183.986v21.286H54.143v-21.28-.006a3.811 3.811 0 01.103-.626 4.63 4.63 0 01.787-1.652c.843-1.127 2.743-2.604 7.243-2.604 4.501 0 6.4 1.477 7.244 2.604a4.63 4.63 0 01.787 1.652 3.811 3.811 0 01.103.626zM123.043 192.242h42.105v55.385h-42.105zM155.632 39.423c0 6.323-5.113 11.441-11.412 11.441-6.298 0-11.411-5.118-11.411-11.441s5.113-11.441 11.411-11.441c6.299 0 11.412 5.118 11.412 11.441zM191.688 180.69c0 4.508-3.646 8.156-8.134 8.156-4.489 0-8.134-3.648-8.134-8.156 0-4.509 3.645-8.157 8.134-8.157 4.488 0 8.134 3.648 8.134 8.157zM113.021 180.69c0 4.508-3.645 8.156-8.133 8.156-4.489 0-8.134-3.648-8.134-8.156 0-4.509 3.645-8.157 8.134-8.157 4.488 0 8.133 3.648 8.133 8.157z"/><path vector-effect="non-scaling-stroke" d="M203.7 57.7h82.601v10.601H203.7zM1.7 57.7h82.601v10.601H1.7z"/><path vector-effect="non-scaling-stroke" d="M428.465 184.484h277.462v63.817H428.465zM428.465 69.259h277.462v105.426H428.465z"/><path vector-effect="non-scaling-stroke" d="M485.707 205.189V248.3H457.19v-43.111c0-1.607.03-4.299 1.679-6.615 1.573-2.208 4.944-4.488 12.579-4.488 7.636 0 11.007 2.28 12.579 4.488 1.65 2.316 1.68 5.008 1.68 6.615zM533.582 205.189V248.3h-28.517v-43.111c0-1.607.03-4.299 1.679-6.615 1.573-2.208 4.944-4.488 12.579-4.488 7.636 0 11.007 2.28 12.579 4.488 1.65 2.316 1.68 5.008 1.68 6.615zM581.455 205.189V248.3h-28.517v-43.111c0-1.607.03-4.299 1.679-6.615 1.573-2.208 4.944-4.488 12.579-4.488 7.636 0 11.007 2.28 12.579 4.488 1.65 2.316 1.68 5.008 1.68 6.615zM629.33 205.189V248.3h-28.517v-43.111c0-1.607.03-4.299 1.679-6.615 1.573-2.208 4.944-4.488 12.579-4.488 7.636 0 11.007 2.28 12.579 4.488 1.65 2.316 1.68 5.008 1.68 6.615zM677.203 205.189V248.3h-28.517v-43.111c0-1.607.03-4.299 1.679-6.615 1.573-2.208 4.944-4.488 12.579-4.488 7.636 0 11.007 2.28 12.579 4.488 1.65 2.316 1.68 5.008 1.68 6.615z"/><path vector-effect="non-scaling-stroke" d="M421.513 185.612l-4.956-11.804h301.28l-4.956 11.804H421.513zM421.63 70.07L416.317 53.2h301.76l-5.313 16.871H421.63z"/><path vector-effect="non-scaling-stroke" d="M471.973 24.7l-11.461 28.6h212.976l-11.461-28.6H471.973zM460.381 130.071h22.134v28.608h-22.134zM460.381 85.261h22.134v28.608h-22.134zM651.877 130.071h22.134v28.608h-22.134zM651.877 85.261h22.134v28.608h-22.134zM604.004 130.071h22.134v28.608h-22.134zM604.004 85.261h22.134v28.608h-22.134zM556.131 130.071h22.134v28.608h-22.134zM556.131 85.261h22.134v28.608h-22.134zM508.256 130.071h22.134v28.608h-22.134zM508.256 85.261h22.134v28.608h-22.134z"/><path vector-effect="non-scaling-stroke" d="M613.382 40.204l.607.61c4.391 4.411 9.284 9.329 16.773 12.604H503.633c7.489-3.275 12.382-8.193 16.772-12.605l.607-.61 1.551-1.555c8.912-8.944 15.499-15.555 22.023-20.028 6.788-4.654 13.474-6.962 22.611-6.962 9.138 0 15.824 2.309 22.612 6.962 6.524 4.473 13.111 11.084 22.023 20.028l1.55 1.556z"/><path vector-effect="non-scaling-stroke" d="M578.265 35.55c0 1.998-1.073 3.936-3.061 5.431-1.989 1.496-4.814 2.471-8.006 2.471s-6.017-.975-8.006-2.47c-1.988-1.496-3.061-3.434-3.061-5.432 0-2 1.073-3.936 3.061-5.432 1.989-1.496 4.814-2.471 8.006-2.471s6.017.975 8.006 2.471c1.988 1.495 3.061 3.433 3.061 5.432z"/></g></svg>