<svg viewBox="0 0 114 62" fill="none" xmlns="http://www.w3.org/2000/svg"><path vector-effect="non-scaling-stroke" clip-rule="evenodd" d="M19.843 59.401C10 59.401 2.02 51.421 2.02 41.574c0-9.844 7.981-17.827 17.824-17.827 7.412 0 13.763 4.528 16.45 10.968 2.356-2.755 5.85-4.507 9.76-4.507.425 0 .846.023 1.261.064a20.646 20.646 0 01-1.261-7.066c0-11.44 9.271-20.712 20.709-20.712 11.436 0 20.708 9.272 20.708 20.712 0 .61-.04 1.21-.093 1.808a17.753 17.753 0 016.57-1.267c9.843 0 17.823 7.983 17.823 17.827 0 9.846-7.98 17.827-17.823 17.827H19.843z"/></svg>