<svg viewBox="0 0 104 56" fill="none" xmlns="http://www.w3.org/2000/svg"><path vector-effect="non-scaling-stroke" clip-rule="evenodd" d="M18.28 53.488c-8.993 0-16.284-7.221-16.284-16.13 0-8.906 7.291-16.128 16.284-16.128 6.77 0 12.573 4.096 15.028 9.922a11.749 11.749 0 0110.069-4.019 18.521 18.521 0 01-1.153-6.393c0-10.35 8.47-18.74 18.92-18.74 10.447 0 18.919 8.39 18.919 18.74 0 .551-.037 1.095-.086 1.635a16.356 16.356 0 016.002-1.145c8.993 0 16.283 7.222 16.283 16.129 0 8.908-7.29 16.129-16.283 16.129h-67.7z" /></svg>