<svg viewBox="0 0 180 180" fill="none" xmlns="http://www.w3.org/2000/svg"><path fill-rule="evenodd" clip-rule="evenodd" d="M37 19h104.912l.085 67.283L89.5 122.282 37 86.241V19zm-3 65.181V76H22.083L34 84.181zM34 73v-8.175L22.093 73H34zm0-11.72V16h111v45.28L161.993 73H162v3h-.007L89.5 126 17.007 76H17v-3h.007L34 61.28zm111 3.545V73h11.907L145 64.825zM145 76v8.224L156.993 76H145z" fill="currentColor"/><path d="M20.014 75.998v86.004h138.972V75.998H143.5V73H162v92H17V73h18v2.998H20.014z" fill="currentColor"/><path fill-rule="evenodd" clip-rule="evenodd" d="M88.633 47.138v-6.253h3v6.253h-3zM98.452 47.64l4.689-4.69 2.122 2.122-4.69 4.69-2.121-2.122zM81.814 47.64l-4.69-4.69-2.121 2.122 4.69 4.69 2.12-2.122zM74.863 56.79c1.481-1.975 3.898-3.336 7.453-3.336 3.616 0 6.02 1.54 7.47 3.554a9 9 0 01.347.518c.108-.175.223-.348.346-.518 1.45-2.014 3.855-3.554 7.47-3.554 3.555 0 5.972 1.36 7.453 3.335 1.427 1.902 1.864 4.208 1.864 5.981 0 6.172-4.371 11.248-8.345 14.626a45.898 45.898 0 01-7.917 5.372l-.144.074-.04.02-.01.006-.004.002h-.001l-.672-1.34-.672 1.34h-.001l-.004-.002-.011-.006-.04-.02a28.486 28.486 0 01-.667-.356 45.898 45.898 0 01-7.393-5.09C77.37 74.018 73 68.942 73 62.77c0-1.773.437-4.079 1.863-5.98zm15.27 24.74l-.671 1.34.67.336.672-.335-.671-1.342zm0-1.7c.406-.225.975-.55 1.655-.97a42.892 42.892 0 005.19-3.75c3.842-3.266 7.288-7.57 7.288-12.34 0-1.354-.345-2.956-1.264-4.18-.864-1.153-2.355-2.136-5.053-2.136-2.638 0-4.141 1.065-5.036 2.307-.95 1.319-1.28 2.946-1.28 4.009h-3c0-1.063-.331-2.69-1.28-4.009-.895-1.242-2.399-2.307-5.037-2.307-2.698 0-4.189.983-5.053 2.135C76.345 59.814 76 61.416 76 62.77c0 4.77 3.446 9.074 7.288 12.34a42.892 42.892 0 006.845 4.72z" fill="currentColor"/></svg>