<svg xmlns="http://www.w3.org/2000/svg" width="470" height="359" viewBox="0 0 470 359">
  <g fill="none" fill-rule="evenodd" transform="translate(0 3)">
    <polygon stroke="#321337" stroke-width="6.38" points="85 352.66 217 352.66 217 154.088 85 154.088"/>
    <path stroke="#321337" stroke-width="6.38" d="M451.708276,79.5 C459.600437,79.5 466,73.1889863 466,65.4032383 C466,57.6187391 459.600437,51.3064767 451.708276,51.3064767 C445.765735,51.3064767 440.672671,54.8865472 438.517961,59.9788134 C436.629109,57.8010517 433.827481,56.4149763 430.692898,56.4149763 C430.352347,56.4149763 430.014329,56.433707 429.681374,56.4661737 C430.324495,54.7192191 430.692898,52.8436468 430.692898,50.8781669 C430.692898,41.8324639 423.259024,34.5 414.088216,34.5 C404.918675,34.5 397.483535,41.8324639 397.483535,50.8781669 C397.483535,51.3601715 397.515185,51.8359325 397.558228,52.3079474 C395.925105,51.6686045 394.152724,51.3064767 392.290458,51.3064767 C384.398297,51.3064767 378,57.6187391 378,65.4032383 C378,73.1889863 384.398297,79.5 392.290458,79.5 L451.708276,79.5 Z"/>
    <polygon stroke="#321337" stroke-width="6.38" points="150 154.088 203 154.088 203 127.845 150 127.845"/>
    <g transform="translate(315)">
      <path stroke="#321337" stroke-width="6.38" d="M48.5,101.798598 L48.5,111.397676 C48.5,112.717185 47.0541447,113.798598 45.2874452,113.798598 L28.7146115,113.798598 C26.947912,113.798598 25.5,112.717185 25.5,111.397676 L25.5,101.798598 L48.5,101.798598 Z"/>
      <path fill="#FFF" stroke="#321337" stroke-width="6.38" d="M37.0007351,0.798598131 C16.5656501,0.798598131 0,17.27045 0,37.5883654 C0,64.7140029 28.237171,92.7985981 28.237171,92.7985981 L45.7672395,92.7985981 C45.7672395,92.7985981 74,67.0149166 74,37.5883654 C74,17.27045 57.4343499,0.798598131 37.0007351,0.798598131 Z"/>
      <line x1="1.608" x2="1.608" y1="8.555" y2=".155" transform="translate(38 93.799)"/>
      <g stroke="#321337" stroke-width="6.38" transform="translate(27 90.799)">
        <line x1=".63" x2=".63" y1="8.4"/>
        <line x1="18.63" x2="18.63" y1="8.182"/>
      </g>
    </g>
    <g transform="translate(18 226.693)">
      <path d="M15.1203778,0.105140187 C8.44657583,12.4522386 -14.7438824,71.8615164 14.1807666,96.1051402 C45.3912335,71.0965901 21.9650182,13.7122713 15.1203778,0.105140187"/>
      <path stroke="#321337" stroke-width="6.38" d="M15.1203778,0.105140187 C8.44657583,12.4522386 -14.7438824,71.8615164 14.1807666,96.1051402 C45.3912335,71.0965901 21.9650182,13.7122713 15.1203778,0.105140187 Z"/>
      <g transform="translate(12 75.105)">
        <line x1="1.176" x2="1.176" y1="1.948" y2="48.362"/>
        <line x1="1.5" x2="1.5" y1=".746" y2="49.987" stroke="#321337" stroke-width="6.38"/>
      </g>
    </g>
    <line x2="468.5" y1="352.66" y2="352.5" stroke="#321337" stroke-width="6.38"/>
    <g stroke="#321337" stroke-width="6.38" transform="translate(183 203.075)">
      <rect width="169" height="149" y=".724" fill="#FFF"/>
      <g transform="translate(0 109.724)">
        <line x1="27.727" x2="27.727" y2="40"/>
        <line x1="56.773" x2="56.773" y2="40"/>
        <line x1="84.94" x2="84.94" y2="40"/>
        <line x1="113.987" x2="113.987" y2="40"/>
        <line x1="142.154" x2="142.154" y2="40"/>
        <line x2="169" y1=".435" y2=".435"/>
      </g>
      <line x2="169" y1="36.224" y2="36.224"/>
      <line x2="169" y1="74.224" y2="74.224"/>
    </g>
  </g>
</svg>
