<svg xmlns="http://www.w3.org/2000/svg" width="469" height="424" viewBox="0 0 469 424">
  <g fill="none" fill-rule="evenodd" transform="translate(0 15)">
    <path stroke="#321337" stroke-width="6.38" d="M182,226 C187.629774,218.659999 189.320931,213.91935 195.508596,199.981115 L264.205507,199.13791 C305.777143,199.13791 391.51914,59.3276121 466,199.13791"/>
    <path stroke="#321337" stroke-width="6.38" d="M132,140.008001 C134.25643,130.661703 151.182841,75.2740445 199.03094,62.0419551 C206.253745,60.0432753 218.913942,58.0206878 236.406847,62.9918859 C254.816327,61.9048846 272.608392,29.9052871 271.578836,0 L273.639539,4.16311943 C274.1392,10.1766912 281.915769,53.9420421 253.875882,78.5015777 C278.308345,108.451492 269.152139,166.853109 255.088435,198"/>
    <path stroke="#321337" stroke-width="6.38" d="M0,201.5 L47.1490281,201.398705 C75.4203802,257.824483 120.870687,268.856912 155.40449,245.504458 C178.560662,227.313571 178.633555,200.858745 181.950182,170.948498 C184.606018,147.008159 219.59461,135.985315 235.136643,137.073222 C242.235778,137.073222 250.865663,171.309536 242.662043,199.165381"/>
    <path stroke="#321337" stroke-width="6.38" d="M133.564238 149.674772C133.564238 149.674772 137.109968 194.912618 158.689133 178.255691 169.201855 170.140043 153.159901 140.03993 131.93499 138.091919 118.682386 136.875608 104.247339 147.817626 105.410632 165.729122 105.731376 170.648566 108.887746 175.797563 108.01009 182.453001L104 220.640068C149.430661 231.735121 150.616295 186.576981 159.707214 187.115792 160.824231 199.819309 160.414126 218.950305 154.117344 238M106 210C110.5 210.439289 114.59009 215.279548 115 221M133 255C140.380203 246.388676 149 220 149 220"/>
    <polygon fill="#370F39" points="442.677 86 436 81.675 440.326 75 447 79.325"/>
    <polygon fill="#370F39" points="303.675 137 297 132.675 301.325 126 308 130.325"/>
    <polygon fill="#370F39" points="391.98 42 387 35.98 393.02 31 398 37.02"/>
    <polygon fill="#370F39" points="379.456 85 379 77.453 386.544 77 387 84.544"/>
    <polygon fill="#370F39" points="330.295 90 329 82.295 336.705 81 338 88.705"/>
    <polygon fill="#370F39" points="366.295 126 365 118.295 372.705 117 374 124.705"/>
    <rect width="30" height="30" x="69" y="288" fill="#F9423A" transform="rotate(-25 84 303)"/>
    <rect width="30" height="30" x="129" y="325" fill="#F9423A" transform="rotate(10 144 340)"/>
    <rect width="30" height="30" x="91" y="378" fill="#F9423A" transform="rotate(2 106 393)"/>
  </g>
</svg>
