<svg xmlns="http://www.w3.org/2000/svg" width="973" height="314" viewBox="0 0 973 314">
  <g fill="none" fill-rule="evenodd" transform="translate(4 3.5)">
    <g stroke="#321337" stroke-width="6.38">
      <path d="M189 170C182.885391 139.220409 172.450947 106.464943 162 91M110 225.636668C129.2 236.690505 170.342857 237.096699 182 225M137 92C132.5 101 119.752961 123.423751 114 151M173.897237 57.4023088C172.734328 76.7166114 161.987724 91.7458529 149.893474 90.9713617 137.800554 90.1968705 128.938526 73.9106229 130.102763 54.5963204 131.265672 35.2833886 142.012276 20.2541471 154.105197 21.0286383 166.199447 21.8031295 175.061475 38.0893771 173.897237 57.4023088z"/>
      <path d="M87.3150286,77.1984942 C98.1937556,94.8182536 116.490981,133.032466 117,183.482623 C103.344309,199.730597 48.4636081,202.449696 35,185.477082 C36.1332865,146.485207 42.668206,108.295466 62.3772379,77.6199545 L74.7953686,97.8024644 L87.6237326,77"/>
      <path d="M48.1121044,41.5226662 C49.3807716,62.492376 61.1040201,78.8096108 74.2976144,77.96892 C87.489846,77.1268304 97.1567906,59.4457462 95.8881234,38.4760363 C94.6194561,17.5063264 82.894845,1.18909169 69.7026134,2.0311813 C56.5090191,2.87187209 46.8420744,20.5529563 48.1121044,41.5226662 Z"/>
      <line x1="43" x2="54" y1="192" y2="304"/>
      <line x1="100" x2="111" y1="306" y2="188"/>
      <path d="M228.641581,100 C241.439574,115.261049 259.698397,197.847761 260,246.067695 C245.050476,259.197069 199.531984,260.361418 178,243.183502 C179.081325,210.636449 194.381098,132.466329 207.547408,108.937168"/>
      <path d="M195.489351 67.61739C190.952604 86.7143705 197.128781 104.60488 209.284296 107.578653 221.441159 110.551057 234.973203 97.4795905 239.509949 78.38261 244.048044 59.2856295 237.871867 41.3951197 225.715004 38.4213474 213.558141 35.4489429 200.026097 48.5204095 195.489351 67.61739zM241 77C268.778811 103.465971 281.121735 124.631013 267.321841 132.000934 252.584144 139.872219 242.008035 99.3335116 241 77zM244 75C273.488268 79.999117 290.660145 88.2134782 284.889168 98.8058915 278.726226 110.119331 254.318588 88.8023165 244 75zM246 74C232.441839 69.854038 212.086793 54.2387662 213.031756 42M62 78C24.8 109.724138 0 198 0 198M80 78.1119941C104.51351 76.706157 140 89 140 89"/>
      <path d="M162,92 C177.027306,96.0944357 210,107.996865 210,107.996865 L172.505925,119"/>
      <line x1="137" x2="101" y1="94" y2="106"/>
      <path d="M230,105 C257.307152,136.071043 281,204 281,204"/>
      <line x1="136" x2="135" y1="233" y2="305"/>
      <line x1="160.987" x2="161.013" y1="233" y2="305"/>
      <path d="M131 49.4142265C149.424125 45.0673887 153.627348 31.6966172 153.627348 21 153.627348 35.7078486 159.231644 43.7303115 173 51M143 9.5C143 4.25328571 147.253286 0 152.5 0 157.746714 0 162 4.25328571 162 9.5 162 14.7467143 157.746714 19 152.5 19 147.253286 19 143 14.7467143 143 9.5zM91 26.405C81.1381665 26.4117647 70.2139532 21 70.2139532 21L47 44"/>
      <line x1="80" x2="80" y1="305" y2="213"/>
      <line x1="232" x2="232" y1="255" y2="305"/>
      <line x1="210.5" x2="210" y1="255" y2="306"/>
    </g>
    <g stroke="#321337" transform="translate(618 206.5)">
      <path stroke-width="6.5" d="M151.431606,52.6916421 C139.887606,59.6384424 131.412005,82.7372433 139.455606,85.3328434 C154.712406,90.2564436 160.650006,58.1540423 160.650006,58.1540423"/>
      <path stroke-width="6.5" d="M149.128806,81.5232032 C149.128806,81.5232032 157.096806,102.558004 181.255207,95.5716038 L176.572807,73.7856029 C175.710007,70.3176028 176.733607,67.9476027 176.607607,65.3268026 C176.151607,55.7868022 168.242407,48.4008019 160.531206,50.121602 C160.531206,50.121602 145.160406,32.7540013 140.275206,27.1524011 C126.961205,11.8872005 88.7148035,-7.41000029 50.550002,16.0224006 C37.1400015,17.5668007 6.74640027,4.22040017 -3.12638804e-13,1.0658141e-13 L1.23240005,2.88120011 C3.36240013,4.65600019 20.6004008,22.1280009 41.9436017,27.6960011 C37.4856015,34.9956014 33.7032013,43.1964017 31.2816012,54.8460022 C30.2160012,56.9388023 21.0852008,65.7264026 18.4212007,68.2104027 C15.7584006,70.6968028 9.90120039,92.0556037 9.36840037,97.3812039 L20.6844008,97.3812039 C21.9264009,90.5484036 26.5872011,74.779203 38.6580015,68.3892027 C50.730002,61.9980025 59.9544024,60.1704024 66.3156026,42.7188017 C85.1328034,37.3932015 82.1400033,60.2712024 103.261204,60.2712024 C104.505604,73.6524029 113.877605,95.0760038 120.091205,99.421204 L130.867205,99.421204 C121.281605,83.5812033 119.780405,67.8936027 119.780405,67.8936027 C119.780405,67.8936027 124.299605,63.1884025 128.204405,60.1704024 L138.678006,67.2708027"/>
      <path stroke-width="6.5" d="M88.9812035 55.4115622C86.8512035 66.0627626 85.5132034 93.8403637 87.6444035 97.3899639L97.7088039 97.3899639C97.5312039 93.6627637 95.1876038 76.439163 102.908404 59.8827624M46.7444419 64.4900426C45.1472418 65.9108426 48.9068419 92.7464437 53.0936421 97.3904439L63.3728425 97.3904439C63.3728425 97.3904439 58.9976423 83.2256433 58.9220423 77.0864431 58.8260423 69.2492428 58.8008423 66.6824426 72.1208429 64.0508425 79.6664432 62.5604425 83.2088433 55.3652422 83.2088433 49.0580419"/>
      <path stroke-width="5.1" d="M128.205005 60.1705224C128.673005 49.725722 137.080205 37.3069215 148.558206 36.5725215M176.535487 85.8064834C172.540687 86.8876835 169.079887 89.7340836 168.812287 94.5688838"/>
    </g>
    <line x1="2.5" x2="968.5" y1="306.5" y2="306" stroke="#321337" stroke-width="6.38"/>
    <g transform="translate(833 279)">
      <rect width="10" height="10" x="20.5" y="2" fill="#F9423A" transform="rotate(13 25.5 7)"/>
      <rect width="10" height="10" x="10.5" y="3" fill="#F9423A" transform="rotate(-38 15.5 8)"/>
      <rect width="10" height="10" x="30.5" y="5" fill="#F9423A" transform="rotate(-13 35.5 10)"/>
      <path fill="#321337" d="M5.86170326,9 L45.0251423,9 C47.2342813,9 49.0251423,10.790861 49.0251423,13 C49.0251423,13.5228815 48.9226247,14.0406901 48.7233903,14.5241265 L45.8385418,21.5241265 C45.2210985,23.0223345 43.7607454,24 42.1402938,24 L8.60230932,24 C6.95598386,24 5.47780488,22.9912973 4.87760471,21.4582783 L2.13699865,14.4582783 C1.33161379,12.4011807 2.34632742,10.0806803 4.40342497,9.27529539 C4.86809048,9.0933718 5.36269402,9 5.86170326,9 Z" transform="matrix(1 0 0 -1 0 33)"/>
    </g>
    <path stroke="#321337" stroke-width="5" d="M749,257.691642 C595.13558,286.309961 447.734306,268.412747 306.796178,204 C285.598726,196.595032 275,195.725881 275,201.392547 C275,209.892547 294.751429,210.255924 303.805118,210.255924"/>
  </g>
</svg>
