<svg xmlns="http://www.w3.org/2000/svg" viewBox="0 0 32 32">
  <g fill="none" fill-rule="evenodd">
    <path fill="currentColor" d="M5.293,17.293 L1.293,21.293 L2.707,22.707 L6.707,18.707 L5.293,17.293 Z M5.707,13.707 L4.293,12.293 L0.293,16.293 L1.707,17.707 L5.707,13.707 Z M6.293,22.293 L7.707,23.707 L11.707,19.707 L10.293,18.293 L6.293,22.293 Z M2.0088,7.973 L8.8742,10.53 L7.7251,16.2746 L13.4785,15.1238 L16.0285,21.9238 L23.6385,0.3638 L2.0088,7.973 Z M10.2749,13.725 L10.7723,11.2371 L12.2236,11.7777 L12.767,13.2267 L10.2749,13.725 Z M12.7471,9.8387 L7.8828,8.0268 L18.1828,4.4027 L12.7471,9.8387 Z M15.9717,16.0761 L14.1624,11.2515 L19.59,5.8245 L15.9717,16.0761 Z" transform="translate(3 4)"/>
  </g>
</svg>
