<svg xmlns="http://www.w3.org/2000/svg" viewBox="0 0 32 32">
  <g fill="none" fill-rule="evenodd">
    <path fill="currentColor" d="M2,13 L8,13 L8,7 L6,7 L6,9.5859 L1.707,5.293 L0.293,6.707 L4.5859,11 L2,11 L2,13 Z M18.6953,5.7183 L17.3047,4.2817 L15,6.5125 L15,0 L13,0 L13,6.5125 L10.6953,4.2817 L9.3047,5.7183 L14,10.2637 L18.6953,5.7183 Z M27.707,6.707 L26.293,5.293 L22,9.5859 L22,7 L20,7 L20,13 L26,13 L26,11 L23.4141,11 L27.707,6.707 Z M8,26 L20,26 L20,14 L8,14 L8,26 Z M10,16 L18,16 L18,24 L10,24 L10,16 Z" transform="translate(2 2)"/>
  </g>
</svg>
