<svg xmlns="http://www.w3.org/2000/svg" viewBox="0 0 32 32">
  <g fill="none" fill-rule="evenodd">
    <path fill="currentColor" d="M26.2061,11.8477 C25.7671,7.4141 22.5923,1 18,1 C14.5427858,0.862445968 11.3982882,2.99044164 10.2407,6.251 C9.04,6.7949 4.6177,8.752 1.5962,10.085 L0.8086,10.4326 L1.0352,11.2626 C1.0952,11.4843 2.5601,16.6942 6.8525,18.6142 C9.36297862,19.629947 12.1900244,19.5106449 14.606,18.287 L17.1426,22.5145 L18.8574,21.4853 L15.3809,15.6913 L14.5527,16.1054 C11.9227,17.4218 9.6108,17.6513 7.6782,16.7919 C6.53145153,16.2476632 5.54306198,15.4190078 4.8071,14.3848 C5.46745371,13.8732581 5.95201048,13.1686707 6.1934,12.369 C6.43407386,11.6742701 6.45457257,10.9222086 6.2521,10.2154 C11.738,7.7881 11.7621,7.736 11.9092,7.4169 L12.0122,7.1874 C12.6694,5.7246 13.8921,3 18,3 C20.9961,3 23.8018,7.8623 24.2158,12.0439 C24.2998,12.8939 24.4468,15.6904 22.8042,16.0195 C21.8547789,16.2944108 20.8308441,16.0395243 20.1211,15.3516 C18.4526,13.6631 18.2832,9.4736 18.978,6.208 L17.022,5.792 C16.2144,9.5879 16.4194,14.4502 18.6982,16.7568 C19.8737688,17.9347181 21.5860121,18.4005308 23.1963,17.9805 C25.417,17.5361 26.5425,15.2432 26.2061,11.8477 Z M4.2881,11.7607 C4.18214045,12.0998484 3.99732498,12.4090622 3.7488,12.663 C3.5359,12.2418 3.3699,11.8565 3.2466,11.543 L4.3878,11.0393 C4.40001009,11.2838872 4.36619095,11.5285927 4.2881,11.7607 Z" transform="translate(2 4)"/>
  </g>
</svg>
