<svg xmlns="http://www.w3.org/2000/svg" viewBox="0 0 32 32">
  <g fill="none" fill-rule="evenodd">
    <path fill="currentColor" d="M19,6.07 L19,0 L0,0 L0,15 L5.8875,15 L5.1553,18.499 L22.7744,22.1836 L25.8444,7.501 L19,6.07 Z M2,2 L17,2 L17,12.4373 L12.22,6.7021 L2,12.8338 L2,2 Z M5.61,13 L11.78,9.2979 L14.8646,13 L5.61,13 Z M21.2254,19.8164 L7.5225,16.95 L7.93,15 L19,15 L19,8.1126 L23.4775,9.0498 L21.2254,19.8164 Z M6,4 C4.8954305,4 4,4.8954305 4,6 C4,7.1045695 4.8954305,8 6,8 C7.1045695,8 8,7.1045695 8,6 C7.99851267,4.89604716 7.10395284,4.00148733 6,4 Z" transform="translate(4 5)"/>
  </g>
</svg>
