<svg xmlns="http://www.w3.org/2000/svg" viewBox="0 0 32 32">
  <g fill="none" fill-rule="evenodd">
    <path fill="currentColor" d="M8,13.0000055 C9.81885939,12.9944833 11.4045544,11.7614389 11.858,10 L13,10 L13,8 L11.858,8 C11.3350062,5.99191127 9.36121641,4.718952 7.31619488,5.07084662 C5.27117335,5.42274124 3.83639509,7.28222577 4.0146866,9.34962873 C4.19297811,11.4170317 5.92492622,13.0034198 8,13.0000055 L8,13.0000055 Z M8,7 C9.1045695,7 10,7.8954305 10,9 C10,10.1045695 9.1045695,11 8,11 C6.8954305,11 6,10.1045695 6,9 C6.00110246,7.89588748 6.89588748,7.00110246 8,7 L8,7 Z M20,11 L18,11 L18,13 L20,13 L20,11 Z M20,8 L18,8 L18,10 L20,10 L20,8 Z M20,5 L18,5 L18,7 L20,7 L20,5 Z M17,5 L15,5 L15,7 L17,7 L17,5 Z M17,8 L15,8 L15,10 L17,10 L17,8 Z M0,0 L0,18 L2,18 L2,20 L4,20 L4,18 L20,18 L20,20 L22,20 L22,18 L24,18 L24,0 L0,0 Z M22,16 L2,16 L2,2 L22,2 L22,16 Z M17,11 L15,11 L15,13 L17,13 L17,11 Z" transform="translate(4 6)"/>
  </g>
</svg>
