<svg xmlns="http://www.w3.org/2000/svg" viewBox="0 0 32 32">
  <g fill="none" fill-rule="evenodd">
    <path fill="currentColor" d="M17,17 L15,17 L15,19 L17,19 L17,17 Z M17,11 L15,11 L15,13 L17,13 L17,11 Z M4.707,4.293 L1.707,1.293 L0.293,2.707 L3.293,5.707 L4.707,4.293 Z M19.707,2.707 L18.293,1.293 L15.293,4.293 L16.707,5.707 L19.707,2.707 Z M11,0 L9,0 L9,4 L11,4 L11,0 Z M17,14 L15,14 L15,16 L17,16 L17,14 Z M14,11 L12,11 L12,13 L14,13 L14,11 Z M6,18 C7.27074516,17.9984143 8.40309379,17.197602 8.828,16 L10,16 L10,14 L8.828,14 C8.31943395,12.561558 6.81225299,11.7339159 5.32555985,12.076696 C3.8388667,12.4194761 2.84622869,13.8234903 3.0188327,15.3393935 C3.19143671,16.8552968 4.4743019,18.0002172 6,18 L6,18 Z M6,14 C6.55228475,14 7,14.4477153 7,15 C7,15.5522847 6.55228475,16 6,16 C5.44771525,16 5,15.5522847 5,15 C5.0004962,14.4479209 5.44792091,14.0004962 6,14 Z M0,8 L0,22 L2,22 L2,24 L4,24 L4,22 L16,22 L16,24 L18,24 L18,22 L20,22 L20,8 L0,8 Z M18,20 L2,20 L2,10 L18,10 L18,20 Z M14,17 L12,17 L12,19 L14,19 L14,17 Z M14,14 L12,14 L12,16 L14,16 L14,14 Z" transform="translate(6 4)"/>
  </g>
</svg>
