<svg viewBox="0 0 26 31" xmlns="http://www.w3.org/2000/svg"><path d="M13 .13a.756.756 0 00-.765.748V5.36c0 .412.343.747.765.747a.756.756 0 00.765-.747V.878A.756.756 0 0013 .13zM1.649 3.225a.768.768 0 00-.538.221.742.742 0 000 1.063L4.35 7.67a.785.785 0 001.088 0 .728.728 0 000-1.05l-3.25-3.176a.768.768 0 00-.538-.221zm22.702 0a.768.768 0 00-.538.221l-3.25 3.175a.728.728 0 000 1.05.785.785 0 001.088 0l3.25-3.162a.742.742 0 000-1.063.796.796 0 00-.55-.221zm-3.74 6.606a.781.781 0 00-.071.011H5.305a.77.77 0 00-.573.316L.143 16.506a.734.734 0 00.06.934L12.32 30.384a.774.774 0 001.243.128L25.797 17.44a.734.734 0 00.06-.934l-4.589-6.35a.77.77 0 00-.657-.326zM6.428 11.335h4.959l-3.465 4.109-1.494-4.109zm8.185 0h4.959l-1.494 4.109-3.465-4.109zM13 11.744l3.74 4.447H9.26L13 11.744zm-7.874.444l1.446 4.003H2.234l2.892-4.003zm15.748 0l2.892 4.003h-4.338l1.446-4.003zM2.51 17.685h4.624l3.609 8.8-8.233-8.8zm6.261 0h8.46L13 27.99 8.77 17.685zm10.097 0h4.624l-8.233 8.8 3.609-8.8z" fill="#321337" fill-rule="nonzero"/></svg>