<svg xmlns="http://www.w3.org/2000/svg" viewBox="0 0 32 32">
  <g fill="none" fill-rule="evenodd">
    <path fill="currentColor" d="M12,0 L10,0 L10,4 L12,4 L12,0 Z M21.707,4.707 L20.293,3.293 L17.293,6.293 L18.707,7.707 L21.707,4.707 Z M4.707,6.293 L1.707,3.293 L0.293,4.707 L3.293,7.707 L4.707,6.293 Z M14.09,12.4688 L11,6.1411 L7.91,12.4688 L1.2371,13.083 L6.1471,18.3081 L4.7139,25.5806 L10.999,21.8081 L17.2861,25.603 L15.8525,18.3081 L20.7625,13.083 L14.09,12.4688 Z M14.4523,21.5571 L11.0012,19.4741 L7.5481,21.5474 L8.3081,17.6874 L5.501,14.6992 L9.2129,14.3574 L11,10.6987 L12.7871,14.3574 L16.499,14.6992 L13.6924,17.687 L14.4523,21.5571 Z" transform="translate(5 2)"/>
  </g>
</svg>
