<svg xmlns="http://www.w3.org/2000/svg" viewBox="0 0 32 32">
  <g fill="none" fill-rule="evenodd">
    <path fill="currentColor" d="M18.833,0.7529 L18.293,1.2929 C16.6875,2.8983 11.313,2.8983 9.707,1.2929 L9.167,0.7529 L0.8994,5.4775 L2.2061,13.3184 L5,12.3877 L5,25 L22,25 L22,12.3877 L24.6328,13.2646 L27.208,5.5381 L18.833,0.7529 Z M23.3672,10.7354 L20,9.6123 L20,23 L7,23 L7,9.6123 L3.7939,10.6816 L3.1006,6.5225 L8.9023,3.208 C11.44,4.94 16.5605,4.94 19.0977,3.208 L24.792,6.4619 L23.3672,10.7354 Z M16,7 L10,7 L10,18 L17,18 L17,11 L16,11 L16,7 Z M12,9 L14,9 L14,11 L12,11 L12,9 Z M15,16 L12,16 L12,13 L15,13 L15,16 Z" transform="translate(2 3)"/>
  </g>
</svg>
