<svg xmlns="http://www.w3.org/2000/svg" xmlns:xlink="http://www.w3.org/1999/xlink" viewBox="0 0 796 273">
  <defs>
    <polygon id="team-teaser-a" points="0 .534 795.174 .534 795.174 3.534 0 3.534"/>
  </defs>
  <g fill="none" fill-rule="evenodd" transform="translate(0 1)">
    <g transform="translate(0 268.35)">
      <mask id="team-teaser-b" fill="#fff">
        <use xlink:href="#team-teaser-a"/>
      </mask>
      <line x2="795.175" y1="1.034" y2="1.034" stroke="#321337" stroke-width="3.931" mask="url(#team-teaser-b)"/>
    </g>
    <path stroke="#321337" stroke-width="3.931" d="M544.1572 221.8327C537.6032 214.8067 534.6692 209.5287 528.3022 207.0667L505.8872 212.3487 509.6532 201.3237 528.4592 196.2247 551.4782 204.3557M665.8311 222.4118C636.4131 230.0678 623.8591 220.0578 610.4131 214.0678 606.7361 212.6278 602.4131 211.0678 596.5921 212.0018"/>
    <path stroke="#321337" stroke-width="3.931" d="M694.0801 159.4538C700.0541 153.9748 705.5691 152.2828 712.7801 154.9868 720.5731 157.9098 722.8821 163.3208 728.7851 165.2758L748.6261 171.7798C743.5411 201.7808 708.6251 189.2468 708.6251 189.2468L726.1321 199.3488C718.4761 205.2008 698.4131 193.0678 681.4131 205.0678 708.0601 211.7198 750.3241 245.1618 750.3241 245.1618L742.0041 247.8228C736.0951 243.9938 684.6071 213.8918 663.7031 223.2348 679.0251 222.9898 714.5821 246.5268 714.5821 246.5268L720.9101 244.1838M602.6133 201.5681C594.6133 223.5681 562.7913 243.1701 547.9913 242.4751 534.1443 240.2751 528.3633 238.3981 519.7533 237.9951L496.0843 251.2501 500.2453 238.4481 516.4703 227.6591 546.3653 221.4131C549.5043 209.2171 555.1833 190.6051 560.2593 183.1091 537.9703 176.1651 512.8293 145.1051 510.6653 143.1231L509.5053 140.0161C516.4273 144.8121 555.6823 172.1631 569.9363 171.1941 603.4053 147.5521 637.8653 165.7901 663.3833 166.3811"/>
    <path stroke="#321337" stroke-width="4.494" d="M701.8848 163.3464C690.8508 151.3484 662.8438 146.8674 660.2878 157.0694 655.5748 175.8854 698.1128 171.7234 698.1128 171.7234M740.4043 169.7878C740.0323 175.0588 741.1043 177.0338 746.8123 178.9488"/>
    <path stroke="#321337" stroke-width="3.931" d="M224.6997,83.404 C215.1277,97.188 194.6117,158.216 196.0927,203.189 C219.3747,213.608 257.8817,214.671 274.0887,200.514 C272.1527,178.204 264.3887,119.514 243.8047,87.122"/>
    <path stroke="#321337" stroke-width="3.931" d="M251.4336,51.3933 C255.8566,68.5323 250.4686,84.7423 239.3996,87.5983 C228.3296,90.4553 215.7716,78.8763 211.3486,61.7373 C206.9256,44.5973 212.3136,28.3873 223.3826,25.5313 C234.4526,22.6743 247.0106,34.2533 251.4336,51.3933 Z"/>
    <line x1="223.163" x2="224.194" y1="210.984" y2="269.265" stroke="#321337" stroke-width="3.931"/>
    <line x1="245.796" x2="245.948" y1="209.852" y2="269.384" stroke="#321337" stroke-width="3.931"/>
    <path stroke="#321337" stroke-width="3.931" d="M209.2554 121.1901C243.2064 106.4781 243.3654 74.6511 241.3394 67.5601M205.7686 52.6472C194.0606 75.2252 182.8776 86.9872 175.6486 79.5412 167.9276 71.5892 191.7546 57.3942 205.7686 52.6472zM209.2554 52.2995C210.3004 77.7115 206.4314 93.4725 196.4604 90.5975 185.8104 87.5285 199.4464 63.3775 209.2554 52.2995zM108.5488 199.6921C125.1098 209.9601 176.6678 204.4331 186.7228 193.1961 184.8018 156.0621 164.1528 91.3361 155.1638 77.2171M134.9566 77.1403C130.0056 85.2323 120.4526 113.8733 115.2806 139.3643M165.5786 50.3561C164.5436 67.0231 154.9786 79.9921 144.2146 79.3241 133.4506 78.6551 125.5636 64.6021 126.5996 47.9351 127.6346 31.2681 137.1996 18.2981 147.9636 18.9671 158.7266 19.6361 166.6146 33.6891 165.5786 50.3561z"/>
    <path stroke="#321337" stroke-width="3.931" d="M88.5401,68.4089 C97.9191,83.7389 116.1511,115.3679 116.5911,159.2629 C104.8171,173.3999 60.5811,178.8449 48.9731,164.0769 C48.9821,141.0679 52.5051,98.8459 69.4981,72.1549 L80.2041,89.7159 L88.5401,68.4089"/>
    <path stroke="#321337" stroke-width="3.931" d="M57.2344,41.1315 C58.3354,58.8635 68.5124,72.6625 79.9644,71.9515 C91.4174,71.2395 99.8084,56.2875 98.7074,38.5555 C97.6054,20.8225 87.4284,7.0245 75.9764,7.7355 C64.5244,8.4465 56.1324,23.3985 57.2344,41.1315 Z"/>
    <line x1="55.083" x2="69.346" y1="168.145" y2="268.061" stroke="#321337" stroke-width="3.931"/>
    <line x1="101.918" x2="111.025" y1="269.204" y2="164.734" stroke="#321337" stroke-width="3.931"/>
    <line x1="84.708" x2="84.708" y1="268.061" y2="188.25" stroke="#321337" stroke-width="3.931"/>
    <line x1="132.039" x2="130.841" y1="205.517" y2="268.352" stroke="#321337" stroke-width="3.931"/>
    <line x1="154.499" x2="154.514" y1="205.517" y2="268.352" stroke="#321337" stroke-width="3.931"/>
    <path stroke="#321337" stroke-width="3.931" d="M128.2979 39.8435C143.8529 35.9975 147.4019 28.1715 147.4019 18.7085 147.4019 31.7205 152.1499 36.9785 165.3589 42.1545M139.1216 9.2458C139.1216 4.6728 142.8286.9658 147.4016.9658 151.9746.9658 155.6826 4.6728 155.6826 9.2458 155.6826 13.8178 151.9746 17.5258 147.4016 17.5258 142.8286 17.5258 139.1216 13.8178 139.1216 9.2458zM94.4341 24.6169C85.8911 24.6229 76.4281 19.8909 76.4281 19.8909L56.3191 40.0009M209.2554 52.2995C221.9354 51.4905 229.1914 39.3255 230.4724 34.8445 236.2344 38.4725 244.8384 36.6985 244.8384 36.6985M69.9819 71.0681C50.9819 85.0681 35.9819 141.0681 35.9819 166.0681M156.9819 173.0681C192.9819 143.0681 177.9819 89.0681 155.6339 77.0681M88.5401 68.4089C108.9821 73.0679 134.9821 77.0679 134.9821 77.0679"/>
    <line x1="133.293" x2="101.918" y1="80.269" y2="90.934" stroke="#321337" stroke-width="3.931"/>
    <path fill="#F9423A" d="M737.5293,191.1032 L744.9143,194.1932 L734.4423,218.5482 L710.0863,208.0762 L716.6353,192.8442 C725.4133,194.0682 732.8453,193.1392 737.5293,191.1032"/>
  </g>
</svg>
