<svg xmlns="http://www.w3.org/2000/svg" width="32" height="32" viewBox="0 0 32 32">
  <g fill="none" fill-rule="evenodd">
    <path fill="currentColor" d="M18,9 L18,11 C21.1641,11 22,12.3081 22,13 C22,14.67 21.7588,23 17,23 C15.3536588,23.0208918 13.7194933,22.7153758 12.1919,22.1011 C10.5323112,21.4588715 8.77810543,21.0949479 7,21.024 L7,12.7809 L10.61,11.8784 L10.8243,11.5664 C12.5400237,8.93952686 13.862444,6.07590569 14.7496,3.0664 C14.9464127,3.09313714 15.1303032,3.17955068 15.2765,3.314 C15.5084,3.5786 15.4518,4.2583 15.4,4.6787 L14.17,10.8447 C13.77194,11.8670408 13.96043,13.0249022 14.6622,13.8682 C15.7071388,14.7817647 17.0777531,15.2327671 18.461,15.1182 C19.0313023,15.1186644 19.600769,15.0745635 20.1642,14.9863 L19.8365,13.0132 C18.6891,13.2026 16.7265,13.1812 16.1565,12.5396 C16.0828,12.4561 15.8572,12.2017 16.1101,11.3213 L17.3714,5.0029 C17.62261,3.96125301 17.4056651,2.86184122 16.7776,1.9937 C16.0442577,1.26798207 15.0272632,0.904147284 14,1 L13.2192,1 L13.0298,1.7573 C12.2387105,4.71393061 11.0073315,7.5347285 9.377,10.125 L7,10.7192 L7,9 L0,9 L0,25 L7,25 L7,23.0245 C8.551895,23.0933685 10.0816804,23.4187009 11.5273,23.9873 C13.2688459,24.6757146 15.1274319,25.0196381 17,25 C22.1611,25 24,18.8013 24,13 C24,11.5142 22.7363,9 18,9 Z M5,23 L2,23 L2,11 L5,11 L5,23 Z" transform="translate(4 1)"/>
  </g>
</svg>
