<svg viewBox="0 0 64 64" fill="none" xmlns="http://www.w3.org/2000/svg"><path fill-rule="evenodd" clip-rule="evenodd" d="M44 12h4a8 8 0 018 8v22h-.045C55.45 47.606 50.738 52 45 52c-6.075 0-11-4.925-11-11 0-.93.115-1.834.333-2.696A8.7 8.7 0 0032 38a8.7 8.7 0 00-2.333.304c.217.862.333 1.766.333 2.696 0 6.075-4.925 11-11 11-5.738 0-10.45-4.394-10.955-10H8V20a8 8 0 018-8h4v4h-4a4 4 0 00-4 4v12.514A10.955 10.955 0 0119 30c3.706 0 6.983 1.832 8.977 4.64 1.087-.368 2.43-.64 4.023-.64 1.593 0 2.936.272 4.023.64A10.986 10.986 0 0145 30c2.66 0 5.098.944 7 2.514V20a4 4 0 00-4-4h-4v-4zM12 41a7 7 0 1014 0 7 7 0 00-14 0zm33-7a7 7 0 110 14 7 7 0 010-14z" fill="#F9423A"/></svg>