<svg xmlns="http://www.w3.org/2000/svg" viewBox="0 0 32 32">
  <g fill="none" fill-rule="evenodd">
    <path fill="currentColor" d="M0.8574,8 L3.124,25 L16.876,25 L19.1426,8 L0.8574,8 Z M15.124,23 L4.876,23 L3.1426,10 L16.8574,10 L15.124,23 Z M19,4 L14.8989,4 C14.4235529,1.67222844 12.3758105,0.000389319215 10,0.000389319215 C7.62418955,0.000389319215 5.57644708,1.67222844 5.1011,4 L1,4 L1,6 L19,6 L19,4 Z M7.1843,4 C7.60196735,2.80231418 8.73157683,1.99991523 10,1.99991523 C11.2684232,1.99991523 12.3980327,2.80231418 12.8157,4 L7.1843,4 Z" transform="translate(6 3)"/>
  </g>
</svg>
