<svg viewBox="0 0 19 15" xmlns="http://www.w3.org/2000/svg" xmlns:xlink="http://www.w3.org/1999/xlink"><defs><path d="M18.25 2.313a5.625 5.625 0 01-2.063.562 3.363 3.363 0 001.563-2 7.031 7.031 0 01-2.25.875 3.581 3.581 0 00-6.188 2.438c0 .312.063.562.063.812A9.938 9.938 0 012 1.25a3.819 3.819 0 00-.5 1.875 3.519 3.519 0 001.625 3A3.713 3.713 0 011.5 5.687v.063a3.562 3.562 0 002.875 3.5 4.825 4.825 0 01-.938.125c-.23.01-.462-.01-.687-.063a3.644 3.644 0 003.375 2.5 7.356 7.356 0 01-4.438 1.563c-.293.01-.586-.01-.875-.063a10.325 10.325 0 005.5 1.626c6.625 0 10.188-5.5 10.188-10.188v-.438a10.581 10.581 0 001.75-2z" id="twitter"/></defs><use fill="currentColor" xlink:href="#twitter" fill-rule="evenodd"/></svg>