<svg xmlns="http://www.w3.org/2000/svg" viewBox="0 0 18 24">
  <path fill="currentColor" fill-rule="evenodd" d="M5.1031964,13.5122463 C7.83385948,12.5078644 10.8328072,12.5078644 13.5634703,13.5122463 C16.1336665,14.4576058 17.8723493,16.8518814 17.9932626,19.5681204 L18,19.8711925 L18,24 L0.666666667,24 L0.666666667,19.8711925 C0.666666667,17.0312227 2.43780767,14.4926191 5.1031964,13.5122463 Z M13.1031964,14.7636158 C10.669652,13.868519 7.99701463,13.868519 5.56347026,14.7636158 C3.51180316,15.518252 2.11979702,17.4223504 2.00735843,19.5873893 L2,19.8711925 L2,22.6666667 L16.6666667,22.6666667 L16.6666667,19.8711925 C16.6666667,17.7801883 15.4712873,15.8925824 13.6230424,14.985968 L13.3670132,14.8684923 L13.1031964,14.7636158 Z M9.33333333,0 C12.6470418,0 15.3333333,2.6862915 15.3333333,6 C15.3333333,9.3137085 12.6470418,12 9.33333333,12 C6.01962483,12 3.33333333,9.3137085 3.33333333,6 C3.33333333,2.6862915 6.01962483,0 9.33333333,0 Z M9.33333333,1.33333333 C6.7560045,1.33333333 4.66666667,3.42267117 4.66666667,6 C4.66666667,8.57732883 6.7560045,10.6666667 9.33333333,10.6666667 C11.9106622,10.6666667 14,8.57732883 14,6 C14,3.42267117 11.9106622,1.33333333 9.33333333,1.33333333 Z" transform="translate(-.333)"/>
</svg>
