<svg xmlns="http://www.w3.org/2000/svg" viewBox="0 0 32 32">
  <g fill="none" fill-rule="evenodd">
    <path fill="currentColor" d="M11.6172,12.3908 C14.1335704,11.1709955 15.4736166,8.37457208 14.8478454,5.64905318 C14.2220741,2.92353427 11.796434,0.991701542 9,0.991701542 C6.20356603,0.991701542 3.77792589,2.92353427 3.15215464,5.64905318 C2.52638339,8.37457208 3.86642961,11.1709955 6.3828,12.3908 C2.59499171,13.5468091 0.00537248762,17.0397197 0,21 L0,24 L2,24 L2,21 C2,17.1340068 5.13400675,14 9,14 C12.8659932,14 16,17.1340068 16,21 L16,24 L18,24 L18,21 C17.9946275,17.0397197 15.4050083,13.5468091 11.6172,12.3908 L11.6172,12.3908 Z M5,7 C5,4.790861 6.790861,3 9,3 C11.209139,3 13,4.790861 13,7 C13,9.209139 11.209139,11 9,11 C6.79182059,10.9976851 5.00231494,9.20817941 5,7 Z" transform="translate(7 3)"/>
  </g>
</svg>
