<svg xmlns="http://www.w3.org/2000/svg" viewBox="0 0 32 32">
  <g fill="none" fill-rule="evenodd">
    <g>
      <path fill="#321337" d="M11.5956,12.4012 C14.1187509,11.1902906 15.4696173,8.3958313 14.8513051,5.66631081 C14.232993,2.93679032 11.8097492,0.997271738 9.01107749,0.99189172 C6.2124058,0.986534047 3.78173848,2.9167411 3.15295853,5.64386923 C2.52417858,8.37099735 3.86431356,11.170619 6.3828,12.3912 C2.59513286,13.5471658 0.00554809398,17.0398676 0,21 L0,24 L2,24 L2,21 C1.9996656,17.9663704 3.9534163,15.277786 6.83884613,14.3411946 C9.72427596,13.4046031 12.884597,14.4331935 14.666,16.8887 L16.2832,15.7129 C15.1228493,14.1281336 13.4769873,12.9653635 11.5956,12.4012 Z M5,7 C5,4.790861 6.790861,3 9,3 C11.209139,3 13,4.790861 13,7 C13,9.209139 11.209139,11 9,11 C6.79182059,10.9976851 5.00231494,9.20817941 5,7 L5,7 Z" transform="translate(7 3)"/>
    </g>
    <circle cx="24.5" cy="23.5" r="3.5" fill="#50B45A" fill-rule="nonzero"/>
  </g>
</svg>
