<svg viewBox="0 0 15 18" xmlns="http://www.w3.org/2000/svg" xmlns:xlink="http://www.w3.org/1999/xlink"><defs><path d="M14.563 0c.124 0 .25.063.187.188a.394.394 0 010 .374l-5.563 9.876 3.563 6.5a.4.4 0 010 .375.344.344 0 01-.313.187h-2.5a.756.756 0 01-.687-.5l-3.563-6.563C5.875 10.126 11.313.5 11.313.5A.756.756 0 0112 0zm-13.2 3.435l.075.002h2.437c.31.01.583.209.688.5l1.75 3c-.125.188-2.75 4.813-2.75 4.813a.756.756 0 01-.688.5h-2.5a.344.344 0 01-.313-.188.4.4 0 010-.374l2.688-4.75L1.062 4a.4.4 0 010-.375.375.375 0 01.375-.188z" id="xing"/></defs><use fill="currentColor" xlink:href="#xing" fill-rule="evenodd"/></svg>